Rubik-MediumItalic.ufo
<glyph name="dollar" format="1">
  <advance width="646"/>
  <unicode hex="0024"/>
  <outline>
    <contour>
      <point x="195" y="-100" type="curve"/>
      <point x="276" y="-100" type="line"/>
      <point x="291" y="-100"/>
      <point x="306" y="-88"/>
      <point x="309" y="-73" type="curve"/>
      <point x="320" y="-8" type="line" name="hr01"/>
      <point x="487" y="3"/>
      <point x="562" y="79"/>
      <point x="586" y="189" type="curve" smooth="yes"/>
      <point x="609" y="299"/>
      <point x="555" y="367"/>
      <point x="402" y="401" type="curve" smooth="yes"/>
      <point x="262" y="432"/>
      <point x="218" y="444"/>
      <point x="231" y="504" type="curve" smooth="yes"/>
      <point x="241" y="554"/>
      <point x="306" y="585"/>
      <point x="376" y="585" type="curve" smooth="yes"/>
      <point x="456" y="585"/>
      <point x="486" y="556"/>
      <point x="499" y="523" type="curve" smooth="yes"/>
      <point x="504" y="508"/>
      <point x="513" y="499"/>
      <point x="535" y="499" type="curve"/>
      <point x="605" y="499" type="line"/>
      <point x="620" y="499"/>
      <point x="635" y="510"/>
      <point x="637" y="526" type="curve" smooth="yes"/>
      <point x="647" y="589"/>
      <point x="589" y="673"/>
      <point x="474" y="701" type="curve"/>
      <point x="489" y="773" type="line"/>
      <point x="492" y="788"/>
      <point x="483" y="800"/>
      <point x="468" y="800" type="curve"/>
      <point x="387" y="800" type="line"/>
      <point x="372" y="800"/>
      <point x="357" y="788"/>
      <point x="354" y="773" type="curve"/>
      <point x="340" y="707" type="line"/>
      <point x="201" y="693"/>
      <point x="120" y="621"/>
      <point x="98" y="514" type="curve"/>
      <point x="72" y="394"/>
      <point x="123" y="334"/>
      <point x="250" y="301" type="curve" smooth="yes"/>
      <point x="391" y="265"/>
      <point x="466" y="259"/>
      <point x="453" y="199" type="curve" smooth="yes"/>
      <point x="440" y="139"/>
      <point x="361" y="115"/>
      <point x="281" y="115" type="curve" smooth="yes"/>
      <point x="181" y="115"/>
      <point x="157" y="152"/>
      <point x="146" y="187" type="curve"/>
      <point x="142" y="203"/>
      <point x="132" y="211"/>
      <point x="110" y="211" type="curve"/>
      <point x="40" y="211" type="line"/>
      <point x="25" y="211"/>
      <point x="10" y="200"/>
      <point x="8" y="184" type="curve" smooth="yes"/>
      <point x="-6" y="91"/>
      <point x="81" y="24"/>
      <point x="187" y="0" type="curve"/>
      <point x="174" y="-73" type="line"/>
      <point x="171" y="-88"/>
      <point x="180" y="-100"/>
    </contour>
  </outline>
</glyph>
<glyph name="comma" format="1">
  <advance width="267"/>
  <unicode hex="002C"/>
  <outline>
    <contour>
      <point x="-32" y="-51" type="line" name="hr00" smooth="yes"/>
      <point x="-37" y="-64"/>
      <point x="-28" y="-75"/>
      <point x="-15" y="-75" type="curve" smooth="yes"/>
      <point x="30" y="-75" type="line"/>
      <point x="56" y="-75"/>
      <point x="67" y="-63"/>
      <point x="75" y="-50" type="curve"/>
      <point x="181" y="123" type="line" smooth="yes"/>
      <point x="189" y="136"/>
      <point x="183" y="152"/>
      <point x="166" y="152" type="curve" smooth="yes"/>
      <point x="79" y="152" type="line" smooth="yes"/>
      <point x="50" y="152"/>
      <point x="35" y="131"/>
      <point x="28" y="113" type="curve" smooth="yes"/>
    </contour>
  </outline>
</glyph>
<glyph name="seven" format="1">
  <advance width="547"/>
  <unicode hex="0037"/>
  <outline>
    <contour>
      <point x="139" y="700" type="line" name="hr00" smooth="yes"/>
      <point x="124" y="700"/>
      <point x="110" y="688"/>
      <point x="107" y="673" type="curve"/>
      <point x="91" y="602" type="line"/>
      <point x="88" y="587"/>
      <point x="98" y="575"/>
      <point x="113" y="575" type="curve"/>
      <point x="413" y="575" type="line"/>
      <point x="66" y="39" type="line" smooth="yes"/>
      <point x="55" y="22"/>
      <point x="59" y="0"/>
      <point x="82" y="0" type="curve"/>
      <point x="179" y="0" type="line" smooth="yes"/>
      <point x="195" y="0"/>
      <point x="205" y="12"/>
      <point x="213" y="24" type="curve" smooth="yes"/>
      <point x="558" y="559" type="line"/>
      <point x="572" y="581"/>
      <point x="582" y="594"/>
      <point x="585" y="607" type="curve" smooth="yes"/>
      <point x="599" y="673" type="line"/>
      <point x="602" y="688"/>
      <point x="592" y="700"/>
      <point x="577" y="700" type="curve"/>
    </contour>
  </outline>
</glyph>
<glyph name="semicolon" format="1">
  <advance width="291"/>
  <unicode hex="003B"/>
  <outline>
    <contour>
      <point x="150" y="502" type="line" name="hr00"/>
      <point x="135" y="502"/>
      <point x="120" y="490"/>
      <point x="117" y="475" type="curve" smooth="yes"/>
      <point x="97" y="377" type="line"/>
      <point x="94" y="362"/>
      <point x="103" y="350"/>
      <point x="118" y="350" type="curve" smooth="yes"/>
      <point x="211" y="350" type="line" smooth="yes"/>
      <point x="226" y="350"/>
      <point x="240" y="362"/>
      <point x="244" y="377" type="curve"/>
      <point x="264" y="475" type="line"/>
      <point x="268" y="490"/>
      <point x="258" y="502"/>
      <point x="243" y="502" type="curve"/>
    </contour>
    <contour>
      <point x="-24" y="-50" type="line" smooth="yes"/>
      <point x="-29" y="-63"/>
      <point x="-20" y="-74"/>
      <point x="-7" y="-74" type="curve" smooth="yes"/>
      <point x="38" y="-74" type="line" smooth="yes"/>
      <point x="64" y="-74"/>
      <point x="80" y="-55"/>
      <point x="88" y="-42" type="curve" smooth="yes"/>
      <point x="189" y="123" type="line" smooth="yes"/>
      <point x="196" y="135"/>
      <point x="191" y="152"/>
      <point x="174" y="152" type="curve" smooth="yes"/>
      <point x="87" y="152" type="line" smooth="yes"/>
      <point x="60" y="152"/>
      <point x="43" y="131"/>
      <point x="36" y="113" type="curve" smooth="yes"/>
    </contour>
  </outline>
</glyph>
<glyph name="greater" format="1">
  <advance width="500"/>
  <unicode hex="003E"/>
  <outline>
    <contour>
      <point x="74" y="212" type="line" smooth="yes"/>
      <point x="59" y="203"/>
      <point x="36" y="188"/>
      <point x="32" y="168" type="curve" smooth="yes"/>
      <point x="11" y="68" type="line"/>
      <point x="8" y="50"/>
      <point x="25" y="41"/>
      <point x="40" y="50" type="curve" smooth="yes"/>
      <point x="440" y="286" type="line" smooth="yes"/>
      <point x="460" y="298"/>
      <point x="473" y="307"/>
      <point x="478" y="328" type="curve" smooth="yes"/>
      <point x="487" y="370" type="line" smooth="yes"/>
      <point x="491" y="391"/>
      <point x="482" y="400"/>
      <point x="466" y="412" type="curve" smooth="yes"/>
      <point x="168" y="647" type="line" smooth="yes"/>
      <point x="154" y="658"/>
      <point x="135" y="650"/>
      <point x="132" y="634" type="curve" smooth="yes"/>
      <point x="116" y="559" type="line" smooth="yes"/>
      <point x="112" y="539"/>
      <point x="127" y="524"/>
      <point x="138" y="515" type="curve" smooth="yes"/>
      <point x="330" y="362" type="line"/>
    </contour>
  </outline>
</glyph>
<glyph name="F" format="1">
  <advance width="599"/>
  <unicode hex="0046"/>
  <outline>
    <contour>
      <point x="191" y="700" type="line" name="hr00" smooth="yes"/>
      <point x="176" y="700"/>
      <point x="162" y="688"/>
      <point x="159" y="673" type="curve" smooth="yes"/>
      <point x="21" y="27" type="line" smooth="yes"/>
      <point x="18" y="12"/>
      <point x="28" y="0"/>
      <point x="43" y="0" type="curve" smooth="yes"/>
      <point x="124" y="0" type="line" smooth="yes"/>
      <point x="139" y="0"/>
      <point x="153" y="12"/>
      <point x="156" y="27" type="curve" smooth="yes"/>
      <point x="205" y="256" type="line"/>
      <point x="504" y="256" type="line" smooth="yes"/>
      <point x="519" y="256"/>
      <point x="533" y="268"/>
      <point x="537" y="283" type="curve" smooth="yes"/>
      <point x="552" y="354" type="line" smooth="yes"/>
      <point x="555" y="369"/>
      <point x="545" y="381"/>
      <point x="530" y="381" type="curve" smooth="yes"/>
      <point x="231" y="381" type="line"/>
      <point x="273" y="575" type="line"/>
      <point x="592" y="575" type="line" smooth="yes"/>
      <point x="607" y="575"/>
      <point x="621" y="587"/>
      <point x="624" y="602" type="curve" smooth="yes"/>
      <point x="640" y="673" type="line" smooth="yes"/>
      <point x="643" y="688"/>
      <point x="633" y="700"/>
      <point x="618" y="700" type="curve" smooth="yes"/>
    </contour>
  </outline>
</glyph>
<glyph name="I" format="1">
  <advance width="293"/>
  <unicode hex="0049"/>
  <outline>
    <contour>
      <point x="124" y="0" type="line" name="hr00" smooth="yes"/>
      <point x="139" y="0"/>
      <point x="153" y="12"/>
      <point x="156" y="27" type="curve" smooth="yes"/>
      <point x="294" y="673" type="line" smooth="yes"/>
      <point x="297" y="688"/>
      <point x="287" y="700"/>
      <point x="272" y="700" type="curve" smooth="yes"/>
      <point x="191" y="700" type="line" smooth="yes"/>
      <point x="176" y="700"/>
      <point x="162" y="688"/>
      <point x="159" y="673" type="curve" smooth="yes"/>
      <point x="21" y="27" type="line" smooth="yes"/>
      <point x="18" y="12"/>
      <point x="28" y="0"/>
      <point x="43" y="0" type="curve" smooth="yes"/>
    </contour>
  </outline>
</glyph>
<glyph name="R" format="1">
  <advance width="669"/>
  <unicode hex="0052"/>
  <outline>
    <contour>
      <point x="191" y="700" type="line" name="hr00" smooth="yes"/>
      <point x="176" y="700"/>
      <point x="162" y="688"/>
      <point x="159" y="673" type="curve" smooth="yes"/>
      <point x="21" y="27" type="line" smooth="yes"/>
      <point x="18" y="12"/>
      <point x="28" y="0"/>
      <point x="43" y="0" type="curve" smooth="yes"/>
      <point x="124" y="0" type="line" smooth="yes"/>
      <point x="139" y="0"/>
      <point x="153" y="12"/>
      <point x="156" y="27" type="curve" smooth="yes"/>
      <point x="206" y="260" type="line"/>
      <point x="352" y="260" type="line"/>
      <point x="433" y="27" type="line" smooth="yes"/>
      <point x="436" y="17"/>
      <point x="444" y="0"/>
      <point x="471" y="0" type="curve" smooth="yes"/>
      <point x="543" y="0" type="line" smooth="yes"/>
      <point x="559" y="0"/>
      <point x="573" y="17"/>
      <point x="569" y="33" type="curve"/>
      <point x="483" y="280" type="line"/>
      <point x="592" y="319"/>
      <point x="637" y="384"/>
      <point x="658" y="481" type="curve" smooth="yes"/>
      <point x="687" y="617"/>
      <point x="594" y="700"/>
      <point x="439" y="700" type="curve" smooth="yes"/>
    </contour>
    <contour>
      <point x="273" y="575" type="line"/>
      <point x="418" y="575" type="line" smooth="yes"/>
      <point x="494" y="575"/>
      <point x="539" y="556"/>
      <point x="523" y="481" type="curve" smooth="yes"/>
      <point x="507" y="406"/>
      <point x="453" y="385"/>
      <point x="377" y="385" type="curve" smooth="yes"/>
      <point x="232" y="385" type="line"/>
    </contour>
  </outline>
</glyph>
<glyph name="S" format="1">
  <advance width="647"/>
  <unicode hex="0053"/>
  <outline>
    <contour>
      <point x="394" y="710" type="curve" smooth="yes"/>
      <point x="224" y="710"/>
      <point x="123" y="634"/>
      <point x="100" y="514" type="curve" smooth="yes"/>
      <point x="79" y="405"/>
      <point x="125" y="336"/>
      <point x="252" y="303" type="curve" smooth="yes"/>
      <point x="393" y="267"/>
      <point x="468" y="259"/>
      <point x="455" y="199" type="curve" smooth="yes"/>
      <point x="442" y="139"/>
      <point x="363" y="115"/>
      <point x="283" y="115" type="curve" smooth="yes"/>
      <point x="183" y="115"/>
      <point x="159" y="152"/>
      <point x="148" y="187" type="curve"/>
      <point x="144" y="203"/>
      <point x="134" y="211"/>
      <point x="112" y="211" type="curve" name="hr01" smooth="yes"/>
      <point x="42" y="211" type="line" smooth="yes"/>
      <point x="27" y="211"/>
      <point x="12" y="200"/>
      <point x="10" y="184" type="curve" smooth="yes"/>
      <point x="-8" y="66"/>
      <point x="136" y="-10"/>
      <point x="276" y="-10" type="curve" smooth="yes"/>
      <point x="476" y="-10"/>
      <point x="563" y="69"/>
      <point x="588" y="189" type="curve" smooth="yes"/>
      <point x="609" y="291"/>
      <point x="557" y="365"/>
      <point x="404" y="399" type="curve" smooth="yes"/>
      <point x="264" y="430"/>
      <point x="220" y="444"/>
      <point x="233" y="504" type="curve" smooth="yes"/>
      <point x="243" y="554"/>
      <point x="308" y="585"/>
      <point x="378" y="585" type="curve" smooth="yes"/>
      <point x="458" y="585"/>
      <point x="488" y="556"/>
      <point x="501" y="523" type="curve" smooth="yes"/>
      <point x="506" y="508"/>
      <point x="515" y="499"/>
      <point x="537" y="499" type="curve" name="hr02" smooth="yes"/>
      <point x="607" y="499" type="line" smooth="yes"/>
      <point x="622" y="499"/>
      <point x="637" y="510"/>
      <point x="639" y="526" type="curve" smooth="yes"/>
      <point x="651" y="603"/>
      <point x="564" y="710"/>
    </contour>
  </outline>
</glyph>
<glyph name="asciicircum" format="1">
  <advance width="429"/>
  <unicode hex="005E"/>
  <outline>
    <contour>
      <point x="281" y="745" type="line" name="hr00" smooth="yes"/>
      <point x="266" y="745"/>
      <point x="256" y="740"/>
      <point x="240" y="726" type="curve" smooth="yes"/>
      <point x="126" y="624" type="line" smooth="yes"/>
      <point x="122" y="621"/>
      <point x="119" y="616"/>
      <point x="118" y="611" type="curve" smooth="yes"/>
      <point x="116" y="601"/>
      <point x="121" y="595"/>
      <point x="131" y="595" type="curve" smooth="yes"/>
      <point x="186" y="595" type="line" smooth="yes"/>
      <point x="199" y="595"/>
      <point x="206" y="598"/>
      <point x="219" y="606" type="curve" smooth="yes"/>
      <point x="303" y="653" type="line"/>
      <point x="367" y="606" type="line" smooth="yes"/>
      <point x="378" y="598"/>
      <point x="383" y="595"/>
      <point x="396" y="595" type="curve" smooth="yes"/>
      <point x="427" y="595" type="line" smooth="yes"/>
      <point x="437" y="595"/>
      <point x="444" y="601"/>
      <point x="446" y="611" type="curve" smooth="yes"/>
      <point x="447" y="616"/>
      <point x="446" y="621"/>
      <point x="444" y="624" type="curve" smooth="yes"/>
      <point x="374" y="726" type="line" smooth="yes"/>
      <point x="364" y="740"/>
      <point x="356" y="745"/>
      <point x="341" y="745" type="curve" smooth="yes"/>
    </contour>
  </outline>
</glyph>
<glyph name="underscore" format="1">
  <advance width="737"/>
  <unicode hex="005F"/>
  <outline>
    <contour>
      <point x="588" y="-60" type="line" name="hr00" smooth="yes"/>
      <point x="603" y="-60"/>
      <point x="617" y="-48"/>
      <point x="620" y="-33" type="curve" smooth="yes"/>
      <point x="635" y="33" type="line" smooth="yes"/>
      <point x="638" y="48"/>
      <point x="628" y="60"/>
      <point x="613" y="60" type="curve" smooth="yes"/>
      <point x="28" y="60" type="line"/>
      <point x="13" y="60"/>
      <point x="-1" y="48"/>
      <point x="-4" y="33" type="curve" smooth="yes"/>
      <point x="-19" y="-33" type="line" smooth="yes"/>
      <point x="-22" y="-48"/>
      <point x="-12" y="-60"/>
      <point x="3" y="-60" type="curve" smooth="yes"/>
    </contour>
  </outline>
</glyph>
<glyph name="d" format="1">
  <advance width="618"/>
  <unicode hex="0064"/>
  <outline>
    <contour>
      <point x="307" y="530" type="curve" smooth="yes"/>
      <point x="163" y="530"/>
      <point x="78" y="424"/>
      <point x="46" y="301" type="curve" smooth="yes"/>
      <point x="41" y="281"/>
      <point x="35" y="251"/>
      <point x="31" y="231" type="curve" smooth="yes"/>
      <point x="11" y="108"/>
      <point x="88" y="-10"/>
      <point x="212" y="-10" type="curve" smooth="yes"/>
      <point x="305" y="-10"/>
      <point x="341" y="20"/>
      <point x="366" y="50" type="curve"/>
      <point x="361" y="27" type="line" smooth="yes"/>
      <point x="358" y="12"/>
      <point x="368" y="0"/>
      <point x="383" y="0" type="curve" name="hr01" smooth="yes"/>
      <point x="459" y="0" type="line" smooth="yes"/>
      <point x="474" y="0"/>
      <point x="488" y="12"/>
      <point x="491" y="27" type="curve" smooth="yes"/>
      <point x="631" y="683" type="line" smooth="yes"/>
      <point x="634" y="698"/>
      <point x="624" y="710"/>
      <point x="609" y="710" type="curve" smooth="yes"/>
      <point x="533" y="710" type="line" smooth="yes"/>
      <point x="518" y="710"/>
      <point x="504" y="698"/>
      <point x="501" y="683" type="curve" smooth="yes"/>
      <point x="455" y="470" type="line"/>
      <point x="439" y="494"/>
      <point x="390" y="530"/>
    </contour>
    <contour>
      <point x="173" y="288" type="curve" smooth="yes"/>
      <point x="199" y="374"/>
      <point x="257" y="410"/>
      <point x="322" y="410" type="curve" smooth="yes"/>
      <point x="387" y="410"/>
      <point x="427" y="367"/>
      <point x="419" y="298" type="curve" smooth="yes"/>
      <point x="417" y="278"/>
      <point x="409" y="242"/>
      <point x="403" y="222" type="curve" smooth="yes"/>
      <point x="380" y="150"/>
      <point x="323" y="110"/>
      <point x="258" y="110" type="curve" name="hr02" smooth="yes"/>
      <point x="193" y="110"/>
      <point x="151" y="146"/>
      <point x="161" y="232" type="curve" smooth="yes"/>
      <point x="163" y="252"/>
      <point x="166" y="268"/>
    </contour>
  </outline>
</glyph>
<glyph name="e" format="1">
  <advance width="569"/>
  <unicode hex="0065"/>
  <outline>
    <contour>
      <point x="34" y="264" type="curve" smooth="yes"/>
      <point x="0" y="104"/>
      <point x="100" y="-10"/>
      <point x="230" y="-10" type="curve" smooth="yes"/>
      <point x="390" y="-10"/>
      <point x="467" y="83"/>
      <point x="477" y="120" type="curve" smooth="yes"/>
      <point x="481" y="135"/>
      <point x="471" y="147"/>
      <point x="456" y="147" type="curve" smooth="yes"/>
      <point x="376" y="147" type="line" smooth="yes"/>
      <point x="360" y="147"/>
      <point x="352" y="144"/>
      <point x="336" y="133" type="curve" smooth="yes"/>
      <point x="316" y="120"/>
      <point x="288" y="110"/>
      <point x="246" y="110" type="curve" name="hr01" smooth="yes"/>
      <point x="187" y="110"/>
      <point x="138" y="144"/>
      <point x="151" y="204" type="curve"/>
      <point x="485" y="204" type="line" smooth="yes"/>
      <point x="500" y="204"/>
      <point x="514" y="216"/>
      <point x="518" y="231" type="curve" smooth="yes"/>
      <point x="527" y="276" type="line" smooth="yes"/>
      <point x="556" y="413"/>
      <point x="465" y="530"/>
      <point x="325" y="530" type="curve" smooth="yes"/>
      <point x="155" y="530"/>
      <point x="66" y="414"/>
    </contour>
    <contour>
      <point x="310" y="410" type="curve" smooth="yes"/>
      <point x="395" y="410"/>
      <point x="405" y="359"/>
      <point x="401" y="318" type="curve"/>
      <point x="175" y="318" type="line"/>
      <point x="189" y="359"/>
      <point x="234" y="410"/>
    </contour>
  </outline>
</glyph>
<glyph name="f" format="1">
  <advance width="428"/>
  <unicode hex="0066"/>
  <outline>
    <contour>
      <point x="301" y="555" type="line" name="hr00" smooth="yes"/>
      <point x="312" y="605"/>
      <point x="353" y="620"/>
      <point x="393" y="620" type="curve" smooth="yes"/>
      <point x="464" y="620" type="line" smooth="yes"/>
      <point x="479" y="620"/>
      <point x="494" y="632"/>
      <point x="497" y="647" type="curve" smooth="yes"/>
      <point x="511" y="713" type="line" smooth="yes"/>
      <point x="514" y="728"/>
      <point x="505" y="740"/>
      <point x="490" y="740" type="curve" smooth="yes"/>
      <point x="399" y="740" type="line" smooth="yes"/>
      <point x="279" y="740"/>
      <point x="201" y="694"/>
      <point x="174" y="565" type="curve" smooth="yes"/>
      <point x="164" y="520" type="line"/>
      <point x="98" y="520" type="line"/>
      <point x="83" y="520"/>
      <point x="68" y="508"/>
      <point x="65" y="493" type="curve"/>
      <point x="51" y="427" type="line"/>
      <point x="48" y="412"/>
      <point x="58" y="400"/>
      <point x="73" y="400" type="curve" smooth="yes"/>
      <point x="139" y="400" type="line"/>
      <point x="59" y="27" type="line" smooth="yes"/>
      <point x="56" y="12"/>
      <point x="66" y="0"/>
      <point x="81" y="0" type="curve"/>
      <point x="157" y="0" type="line" smooth="yes"/>
      <point x="172" y="0"/>
      <point x="186" y="12"/>
      <point x="189" y="27" type="curve" smooth="yes"/>
      <point x="269" y="400" type="line"/>
      <point x="408" y="400" type="line"/>
      <point x="423" y="400"/>
      <point x="437" y="412"/>
      <point x="440" y="427" type="curve"/>
      <point x="454" y="493" type="line"/>
      <point x="457" y="508"/>
      <point x="448" y="520"/>
      <point x="433" y="520" type="curve"/>
      <point x="294" y="520" type="line"/>
    </contour>
  </outline>
</glyph>
<glyph name="k" format="1">
  <advance width="574"/>
  <unicode hex="006B"/>
  <outline>
    <contour>
      <point x="360" y="17" type="line" name="hr00" smooth="yes"/>
      <point x="365" y="11"/>
      <point x="378" y="0"/>
      <point x="398" y="0" type="curve" smooth="yes"/>
      <point x="476" y="0" type="line" smooth="yes"/>
      <point x="489" y="0"/>
      <point x="502" y="11"/>
      <point x="505" y="24" type="curve" smooth="yes"/>
      <point x="506" y="30"/>
      <point x="505" y="35"/>
      <point x="499" y="43" type="curve" smooth="yes"/>
      <point x="301" y="272" type="line"/>
      <point x="579" y="476" type="line" smooth="yes"/>
      <point x="590" y="484"/>
      <point x="593" y="490"/>
      <point x="594" y="496" type="curve" smooth="yes"/>
      <point x="597" y="509"/>
      <point x="588" y="520"/>
      <point x="575" y="520" type="curve" smooth="yes"/>
      <point x="458" y="520" type="line" smooth="yes"/>
      <point x="440" y="520"/>
      <point x="424" y="510"/>
      <point x="415" y="503" type="curve" smooth="yes"/>
      <point x="212" y="355" type="line"/>
      <point x="282" y="683" type="line" smooth="yes"/>
      <point x="285" y="698"/>
      <point x="275" y="710"/>
      <point x="260" y="710" type="curve" smooth="yes"/>
      <point x="184" y="710" type="line" smooth="yes"/>
      <point x="169" y="710"/>
      <point x="155" y="698"/>
      <point x="152" y="683" type="curve" smooth="yes"/>
      <point x="12" y="27" type="line" smooth="yes"/>
      <point x="9" y="12"/>
      <point x="19" y="0"/>
      <point x="34" y="0" type="curve" smooth="yes"/>
      <point x="110" y="0" type="line" smooth="yes"/>
      <point x="125" y="0"/>
      <point x="139" y="12"/>
      <point x="142" y="27" type="curve" smooth="yes"/>
      <point x="182" y="216" type="line"/>
    </contour>
  </outline>
</glyph>
<glyph name="m" format="1">
  <advance width="918"/>
  <unicode hex="006D"/>
  <outline>
    <contour>
      <point x="241" y="493" type="line" smooth="yes"/>
      <point x="244" y="508"/>
      <point x="235" y="520"/>
      <point x="220" y="520" type="curve" smooth="yes"/>
      <point x="144" y="520" type="line" smooth="yes"/>
      <point x="129" y="520"/>
      <point x="114" y="508"/>
      <point x="111" y="493" type="curve" smooth="yes"/>
      <point x="12" y="27" type="line" smooth="yes"/>
      <point x="9" y="12"/>
      <point x="19" y="0"/>
      <point x="34" y="0" type="curve" smooth="yes"/>
      <point x="110" y="0" type="line" smooth="yes"/>
      <point x="125" y="0"/>
      <point x="139" y="12"/>
      <point x="142" y="27" type="curve" smooth="yes"/>
      <point x="198" y="291" type="line" smooth="yes"/>
      <point x="217" y="381"/>
      <point x="269" y="413"/>
      <point x="323" y="413" type="curve" name="hr01" smooth="yes"/>
      <point x="385" y="413"/>
      <point x="415" y="381"/>
      <point x="396" y="291" type="curve" smooth="yes"/>
      <point x="340" y="27" type="line" smooth="yes"/>
      <point x="337" y="12"/>
      <point x="347" y="0"/>
      <point x="362" y="0" type="curve" smooth="yes"/>
      <point x="438" y="0" type="line" smooth="yes"/>
      <point x="453" y="0"/>
      <point x="467" y="12"/>
      <point x="470" y="27" type="curve" smooth="yes"/>
      <point x="527" y="296" type="line"/>
      <point x="548" y="382"/>
      <point x="598" y="413"/>
      <point x="651" y="413" type="curve" smooth="yes"/>
      <point x="713" y="413"/>
      <point x="743" y="381"/>
      <point x="724" y="291" type="curve" smooth="yes"/>
      <point x="668" y="27" type="line" smooth="yes"/>
      <point x="665" y="12"/>
      <point x="675" y="0"/>
      <point x="690" y="0" type="curve" smooth="yes"/>
      <point x="766" y="0" type="line" smooth="yes"/>
      <point x="781" y="0"/>
      <point x="795" y="12"/>
      <point x="798" y="27" type="curve" smooth="yes"/>
      <point x="855" y="296" type="line" smooth="yes"/>
      <point x="882" y="421"/>
      <point x="838" y="530"/>
      <point x="696" y="530" type="curve" smooth="yes"/>
      <point x="628" y="530"/>
      <point x="574" y="499"/>
      <point x="526" y="445" type="curve"/>
      <point x="502" y="491"/>
      <point x="442" y="530"/>
      <point x="368" y="530" type="curve" smooth="yes"/>
      <point x="309" y="530"/>
      <point x="269" y="506"/>
      <point x="236" y="470" type="curve"/>
    </contour>
  </outline>
</glyph>
<glyph name="v" format="1">
  <advance width="591"/>
  <unicode hex="0076"/>
  <outline>
    <contour>
      <point x="198" y="0" type="curve" name="hr00"/>
      <point x="268" y="0" type="line"/>
      <point x="288" y="0"/>
      <point x="298" y="13"/>
      <point x="306" y="25" type="curve"/>
      <point x="605" y="486" type="line" smooth="yes"/>
      <point x="614" y="500"/>
      <point x="606" y="520"/>
      <point x="586" y="520" type="curve" smooth="yes"/>
      <point x="500" y="520" type="line" smooth="yes"/>
      <point x="480" y="520"/>
      <point x="469" y="507"/>
      <point x="462" y="496" type="curve"/>
      <point x="265" y="190" type="line"/>
      <point x="196" y="496" type="line"/>
      <point x="194" y="507"/>
      <point x="188" y="520"/>
      <point x="168" y="520" type="curve" smooth="yes"/>
      <point x="100" y="520" type="line" smooth="yes"/>
      <point x="80" y="520"/>
      <point x="63" y="503"/>
      <point x="68" y="482" type="curve" smooth="yes"/>
      <point x="170" y="25" type="line" smooth="yes"/>
      <point x="173" y="11"/>
      <point x="178" y="0"/>
    </contour>
  </outline>
</glyph>
<glyph name="w" format="1">
  <advance width="831"/>
  <unicode hex="0077"/>
  <outline>
    <contour>
      <point x="513" y="496" type="line" name="hr00"/>
      <point x="512" y="507"/>
      <point x="505" y="520"/>
      <point x="490" y="520" type="curve" smooth="yes"/>
      <point x="418" y="520" type="line"/>
      <point x="403" y="520"/>
      <point x="391" y="507"/>
      <point x="385" y="496" type="curve"/>
      <point x="229" y="216" type="line"/>
      <point x="196" y="497" type="line"/>
      <point x="195" y="508"/>
      <point x="192" y="520"/>
      <point x="173" y="520" type="curve"/>
      <point x="104" y="520" type="line" smooth="yes"/>
      <point x="85" y="520"/>
      <point x="69" y="504"/>
      <point x="71" y="486" type="curve"/>
      <point x="125" y="25" type="line"/>
      <point x="126" y="13"/>
      <point x="131" y="0"/>
      <point x="149" y="0" type="curve"/>
      <point x="220" y="0" type="line"/>
      <point x="238" y="0"/>
      <point x="247" y="12"/>
      <point x="254" y="25" type="curve"/>
      <point x="415" y="302" type="line"/>
      <point x="457" y="25" type="line"/>
      <point x="459" y="13"/>
      <point x="463" y="0"/>
      <point x="481" y="0" type="curve"/>
      <point x="555" y="0" type="line" smooth="yes"/>
      <point x="573" y="0"/>
      <point x="582" y="13"/>
      <point x="589" y="25" type="curve"/>
      <point x="840" y="485" type="line"/>
      <point x="848" y="500"/>
      <point x="840" y="520"/>
      <point x="822" y="520" type="curve" smooth="yes"/>
      <point x="732" y="520" type="line" smooth="yes"/>
      <point x="714" y="520"/>
      <point x="705" y="507"/>
      <point x="699" y="496" type="curve"/>
      <point x="551" y="226" type="line"/>
    </contour>
  </outline>
</glyph>
<glyph name="z" format="1">
  <advance width="539"/>
  <unicode hex="007A"/>
  <outline>
    <contour>
      <point x="190" y="120" type="line" name="hr00"/>
      <point x="489" y="391" type="line"/>
      <point x="499" y="399"/>
      <point x="508" y="413"/>
      <point x="510" y="425" type="curve" smooth="yes"/>
      <point x="524" y="493" type="line" smooth="yes"/>
      <point x="527" y="508"/>
      <point x="518" y="520"/>
      <point x="503" y="520" type="curve"/>
      <point x="127" y="520" type="line" smooth="yes"/>
      <point x="112" y="520"/>
      <point x="97" y="508"/>
      <point x="94" y="493" type="curve" smooth="yes"/>
      <point x="80" y="427" type="line"/>
      <point x="77" y="412"/>
      <point x="87" y="400"/>
      <point x="102" y="400" type="curve" smooth="yes"/>
      <point x="320" y="400" type="line"/>
      <point x="21" y="129" type="line" smooth="yes"/>
      <point x="11" y="120"/>
      <point x="4" y="111"/>
      <point x="0" y="95" type="curve"/>
      <point x="-15" y="27" type="line"/>
      <point x="-18" y="12"/>
      <point x="-8" y="0"/>
      <point x="7" y="0" type="curve"/>
      <point x="413" y="0" type="line"/>
      <point x="428" y="0"/>
      <point x="442" y="12"/>
      <point x="445" y="27" type="curve"/>
      <point x="459" y="93" type="line" smooth="yes"/>
      <point x="462" y="108"/>
      <point x="453" y="120"/>
      <point x="438" y="120" type="curve"/>
    </contour>
  </outline>
</glyph>
<glyph name="braceright" format="1">
  <advance width="395"/>
  <unicode hex="007D"/>
  <outline>
    <contour>
      <point x="110" y="683" type="line" name="hr00"/>
      <point x="106" y="668"/>
      <point x="116" y="657"/>
      <point x="131" y="656" type="curve" smooth="yes"/>
      <point x="196" y="652"/>
      <point x="216" y="582"/>
      <point x="192" y="470" type="curve" smooth="yes"/>
      <point x="171" y="373"/>
      <point x="202" y="333"/>
      <point x="233" y="309" type="curve"/>
      <point x="192" y="285"/>
      <point x="144" y="245"/>
      <point x="124" y="148" type="curve" smooth="yes"/>
      <point x="98" y="25"/>
      <point x="38" y="-39"/>
      <point x="-17" y="-39" type="curve" smooth="yes"/>
      <point x="-32" y="-39"/>
      <point x="-46" y="-51"/>
      <point x="-50" y="-66" type="curve"/>
      <point x="-64" y="-132" type="line" smooth="yes"/>
      <point x="-67" y="-147"/>
      <point x="-57" y="-159"/>
      <point x="-42" y="-159" type="curve" smooth="yes"/>
      <point x="126" y="-159"/>
      <point x="209" y="-64"/>
      <point x="247" y="115" type="curve" smooth="yes"/>
      <point x="260" y="178"/>
      <point x="288" y="223"/>
      <point x="330" y="239" type="curve" smooth="yes"/>
      <point x="349" y="246" type="line" smooth="yes"/>
      <point x="371" y="255"/>
      <point x="382" y="267"/>
      <point x="386" y="283" type="curve" smooth="yes"/>
      <point x="397" y="335" type="line" smooth="yes"/>
      <point x="400" y="351"/>
      <point x="394" y="363"/>
      <point x="375" y="372" type="curve" smooth="yes"/>
      <point x="360" y="379" type="line" smooth="yes"/>
      <point x="324" y="395"/>
      <point x="318" y="439"/>
      <point x="329" y="503" type="curve" smooth="yes"/>
      <point x="357" y="672"/>
      <point x="259" y="776"/>
      <point x="156" y="776" type="curve" smooth="yes"/>
      <point x="141" y="776"/>
      <point x="127" y="764"/>
      <point x="124" y="749" type="curve" smooth="yes"/>
    </contour>
  </outline>
</glyph>
<glyph name="dieresis" format="1">
  <advance width="394"/>
  <unicode hex="00A8"/>
  <outline>
    <contour>
      <point x="82" y="737" type="line" name="hr00" smooth="yes"/>
      <point x="67" y="737"/>
      <point x="52" y="725"/>
      <point x="49" y="710" type="curve" smooth="yes"/>
      <point x="31" y="622" type="line" smooth="yes"/>
      <point x="28" y="607"/>
      <point x="37" y="595"/>
      <point x="52" y="595" type="curve" smooth="yes"/>
      <point x="135" y="595" type="line"/>
      <point x="150" y="595"/>
      <point x="165" y="607"/>
      <point x="168" y="622" type="curve" smooth="yes"/>
      <point x="186" y="710" type="line" smooth="yes"/>
      <point x="189" y="725"/>
      <point x="180" y="737"/>
      <point x="165" y="737" type="curve" smooth="yes"/>
    </contour>
    <contour>
      <point x="289" y="737" type="line" smooth="yes"/>
      <point x="274" y="737"/>
      <point x="259" y="725"/>
      <point x="256" y="710" type="curve" smooth="yes"/>
      <point x="238" y="622" type="line" smooth="yes"/>
      <point x="235" y="607"/>
      <point x="244" y="595"/>
      <point x="259" y="595" type="curve" smooth="yes"/>
      <point x="342" y="595" type="line" smooth="yes"/>
      <point x="357" y="595"/>
      <point x="372" y="607"/>
      <point x="375" y="622" type="curve" smooth="yes"/>
      <point x="393" y="710" type="line" smooth="yes"/>
      <point x="396" y="725"/>
      <point x="387" y="737"/>
      <point x="372" y="737" type="curve" smooth="yes"/>
    </contour>
  </outline>
</glyph>
<glyph name="guillemotleft" format="1">
  <advance width="621"/>
  <unicode hex="00AB"/>
  <outline>
    <contour>
      <point x="313" y="297" type="line" smooth="yes"/>
      <point x="311" y="285"/>
      <point x="315" y="276"/>
      <point x="321" y="269" type="curve" smooth="yes"/>
      <point x="476" y="80" type="line" smooth="yes"/>
      <point x="489" y="65"/>
      <point x="513" y="76"/>
      <point x="517" y="95" type="curve" smooth="yes"/>
      <point x="532" y="167" type="line" smooth="yes"/>
      <point x="537" y="190"/>
      <point x="534" y="199"/>
      <point x="524" y="212" type="curve" smooth="yes"/>
      <point x="442" y="312" type="line"/>
      <point x="566" y="412" type="line" smooth="yes"/>
      <point x="582" y="425"/>
      <point x="588" y="434"/>
      <point x="593" y="457" type="curve" smooth="yes"/>
      <point x="617" y="565" type="line" smooth="yes"/>
      <point x="621" y="584"/>
      <point x="600" y="594"/>
      <point x="585" y="582" type="curve" smooth="yes"/>
      <point x="347" y="391" type="line" smooth="yes"/>
      <point x="338" y="384"/>
      <point x="330" y="375"/>
      <point x="327" y="363" type="curve" smooth="yes"/>
    </contour>
    <contour>
      <point x="42" y="297" type="line" smooth="yes"/>
      <point x="40" y="285"/>
      <point x="44" y="276"/>
      <point x="50" y="269" type="curve" smooth="yes"/>
      <point x="205" y="80" type="line" smooth="yes"/>
      <point x="218" y="65"/>
      <point x="242" y="76"/>
      <point x="246" y="95" type="curve" smooth="yes"/>
      <point x="261" y="167" type="line" smooth="yes"/>
      <point x="266" y="190"/>
      <point x="263" y="199"/>
      <point x="253" y="212" type="curve" smooth="yes"/>
      <point x="171" y="312" type="line"/>
      <point x="295" y="412" type="line" smooth="yes"/>
      <point x="311" y="425"/>
      <point x="317" y="434"/>
      <point x="322" y="457" type="curve" smooth="yes"/>
      <point x="346" y="565" type="line" smooth="yes"/>
      <point x="350" y="584"/>
      <point x="329" y="594"/>
      <point x="314" y="582" type="curve" smooth="yes"/>
      <point x="76" y="391" type="line" smooth="yes"/>
      <point x="67" y="384"/>
      <point x="59" y="375"/>
      <point x="56" y="363" type="curve" smooth="yes"/>
    </contour>
  </outline>
</glyph>
<glyph name="paragraph" format="1">
  <advance width="562"/>
  <unicode hex="00B6"/>
  <outline>
    <contour>
      <point x="75" y="513" type="curve" name="hr00" smooth="yes"/>
      <point x="53" y="410"/>
      <point x="119" y="326"/>
      <point x="222" y="326" type="curve"/>
      <point x="137" y="-73" type="line" smooth="yes"/>
      <point x="134" y="-88"/>
      <point x="143" y="-100"/>
      <point x="158" y="-100" type="curve" smooth="yes"/>
      <point x="202" y="-100" type="line" smooth="yes"/>
      <point x="217" y="-100"/>
      <point x="232" y="-88"/>
      <point x="235" y="-73" type="curve" smooth="yes"/>
      <point x="378" y="602" type="line"/>
      <point x="457" y="602" type="line"/>
      <point x="314" y="-73" type="line" smooth="yes"/>
      <point x="311" y="-88"/>
      <point x="320" y="-100"/>
      <point x="335" y="-100" type="curve" smooth="yes"/>
      <point x="379" y="-100" type="line" smooth="yes"/>
      <point x="394" y="-100"/>
      <point x="409" y="-88"/>
      <point x="412" y="-73" type="curve" smooth="yes"/>
      <point x="571" y="673" type="line" smooth="yes"/>
      <point x="574" y="688"/>
      <point x="564" y="700"/>
      <point x="549" y="700" type="curve" smooth="yes"/>
      <point x="301" y="700" type="line" smooth="yes"/>
      <point x="198" y="700"/>
      <point x="96" y="616"/>
    </contour>
  </outline>
</glyph>
<glyph name="periodcentered" format="1">
  <advance width="330"/>
  <unicode hex="00B7"/>
  <outline>
    <contour>
      <point x="45" y="300" type="curve" name="hr00" smooth="yes"/>
      <point x="31" y="234"/>
      <point x="74" y="180"/>
      <point x="140" y="180" type="curve" smooth="yes"/>
      <point x="206" y="180"/>
      <point x="271" y="234"/>
      <point x="285" y="300" type="curve" smooth="yes"/>
      <point x="299" y="366"/>
      <point x="257" y="420"/>
      <point x="191" y="420" type="curve" smooth="yes"/>
      <point x="125" y="420"/>
      <point x="59" y="366"/>
    </contour>
  </outline>
</glyph>
<glyph name="eth" format="1">
  <advance width="593"/>
  <unicode hex="00F0"/>
  <outline>
    <contour>
      <point x="531" y="235" type="curve" name="hr00" smooth="yes"/>
      <point x="563" y="390"/>
      <point x="551" y="489"/>
      <point x="508" y="571" type="curve"/>
      <point x="546" y="585" type="line"/>
      <point x="563" y="591"/>
      <point x="571" y="600"/>
      <point x="575" y="618" type="curve"/>
      <point x="585" y="666" type="line"/>
      <point x="588" y="678"/>
      <point x="581" y="687"/>
      <point x="569" y="687" type="curve" smooth="yes"/>
      <point x="567" y="687"/>
      <point x="562" y="686"/>
      <point x="557" y="684" type="curve"/>
      <point x="457" y="648" type="line"/>
      <point x="447" y="661"/>
      <point x="435" y="674"/>
      <point x="423" y="687" type="curve"/>
      <point x="414" y="695"/>
      <point x="405" y="700"/>
      <point x="389" y="700" type="curve"/>
      <point x="283" y="700" type="line"/>
      <point x="271" y="700"/>
      <point x="262" y="692"/>
      <point x="259" y="680" type="curve" smooth="yes"/>
      <point x="258" y="675"/>
      <point x="260" y="669"/>
      <point x="271" y="658" type="curve" smooth="yes"/>
      <point x="291" y="639"/>
      <point x="309" y="620"/>
      <point x="326" y="601" type="curve"/>
      <point x="290" y="588" type="line"/>
      <point x="273" y="582"/>
      <point x="265" y="573"/>
      <point x="261" y="555" type="curve"/>
      <point x="251" y="507" type="line"/>
      <point x="249" y="495"/>
      <point x="256" y="486"/>
      <point x="268" y="486" type="curve" smooth="yes"/>
      <point x="270" y="486"/>
      <point x="274" y="487"/>
      <point x="279" y="489" type="curve"/>
      <point x="379" y="525" type="line"/>
      <point x="389" y="505"/>
      <point x="397" y="484"/>
      <point x="403" y="461" type="curve"/>
      <point x="381" y="467"/>
      <point x="345" y="470"/>
      <point x="319" y="470" type="curve" smooth="yes"/>
      <point x="160" y="470"/>
      <point x="63" y="397"/>
      <point x="28" y="235" type="curve" smooth="yes"/>
      <point x="-6" y="73"/>
      <point x="118" y="-10"/>
      <point x="237" y="-10" type="curve" smooth="yes"/>
      <point x="396" y="-10"/>
      <point x="495" y="63"/>
    </contour>
    <contour>
      <point x="157" y="230" type="curve" smooth="yes"/>
      <point x="172" y="297"/>
      <point x="225" y="350"/>
      <point x="304" y="350" type="curve" smooth="yes"/>
      <point x="383" y="350"/>
      <point x="414" y="297"/>
      <point x="399" y="230" type="curve" smooth="yes"/>
      <point x="385" y="163"/>
      <point x="332" y="110"/>
      <point x="253" y="110" type="curve" smooth="yes"/>
      <point x="174" y="110"/>
      <point x="143" y="163"/>
    </contour>
  </outline>
</glyph>
<glyph name="Aogonek" format="1">
  <advance width="704"/>
  <unicode hex="0104"/>
  <outline>
    <contour>
      <point x="381" y="700" type="line" name="hr00"/>
      <point x="360" y="700"/>
      <point x="349" y="688"/>
      <point x="336" y="666" type="curve"/>
      <point x="-43" y="34" type="line"/>
      <point x="-52" y="19"/>
      <point x="-43" y="0"/>
      <point x="-24" y="0" type="curve"/>
      <point x="56" y="0" type="line"/>
      <point x="82" y="0"/>
      <point x="93" y="14"/>
      <point x="100" y="25" type="curve"/>
      <point x="166" y="136" type="line"/>
      <point x="482" y="136" type="line"/>
      <point x="495" y="64" type="line"/>
      <point x="455" y="40"/>
      <point x="429" y="1"/>
      <point x="418" y="-54" type="curve" smooth="yes"/>
      <point x="398" y="-149"/>
      <point x="466" y="-220"/>
      <point x="537" y="-220" type="curve"/>
      <point x="556" y="-220" type="line"/>
      <point x="569" y="-220"/>
      <point x="580" y="-211"/>
      <point x="582" y="-198" type="curve"/>
      <point x="593" y="-150" type="line"/>
      <point x="595" y="-137"/>
      <point x="588" y="-128"/>
      <point x="575" y="-128" type="curve"/>
      <point x="560" y="-128" type="line"/>
      <point x="526" y="-128"/>
      <point x="507" y="-105"/>
      <point x="516" y="-64" type="curve" smooth="yes"/>
      <point x="525" y="-23"/>
      <point x="554" y="0"/>
      <point x="588" y="0" type="curve"/>
      <point x="603" y="0" type="line"/>
      <point x="621" y="0"/>
      <point x="639" y="16"/>
      <point x="636" y="34" type="curve"/>
      <point x="525" y="666" type="line"/>
      <point x="521" y="688"/>
      <point x="515" y="700"/>
      <point x="494" y="700" type="curve"/>
    </contour>
    <contour>
      <point x="241" y="261" type="line"/>
      <point x="412" y="546" type="line"/>
      <point x="461" y="261" type="line"/>
    </contour>
  </outline>
</glyph>
<glyph name="Lslash" format="1">
  <advance width="593"/>
  <unicode hex="0141"/>
  <outline>
    <contour>
      <point x="187" y="125" type="line" name="hr00"/>
      <point x="225" y="304" type="line"/>
      <point x="394" y="365" type="line"/>
      <point x="411" y="371"/>
      <point x="419" y="380"/>
      <point x="423" y="398" type="curve"/>
      <point x="433" y="446" type="line"/>
      <point x="436" y="458"/>
      <point x="429" y="467"/>
      <point x="417" y="467" type="curve" smooth="yes"/>
      <point x="415" y="467"/>
      <point x="411" y="466"/>
      <point x="405" y="464" type="curve"/>
      <point x="247" y="407" type="line"/>
      <point x="304" y="673" type="line"/>
      <point x="307" y="688"/>
      <point x="297" y="700"/>
      <point x="282" y="700" type="curve"/>
      <point x="201" y="700" type="line"/>
      <point x="186" y="700"/>
      <point x="172" y="688"/>
      <point x="169" y="673" type="curve"/>
      <point x="101" y="354" type="line"/>
      <point x="49" y="335" type="line"/>
      <point x="31" y="329"/>
      <point x="24" y="320"/>
      <point x="20" y="302" type="curve"/>
      <point x="9" y="254" type="line"/>
      <point x="7" y="242"/>
      <point x="14" y="233"/>
      <point x="26" y="233" type="curve" smooth="yes"/>
      <point x="28" y="233"/>
      <point x="32" y="234"/>
      <point x="38" y="236" type="curve"/>
      <point x="79" y="251" type="line"/>
      <point x="31" y="27" type="line"/>
      <point x="28" y="12"/>
      <point x="38" y="0"/>
      <point x="53" y="0" type="curve"/>
      <point x="491" y="0" type="line"/>
      <point x="506" y="0"/>
      <point x="520" y="12"/>
      <point x="523" y="27" type="curve"/>
      <point x="538" y="98" type="line"/>
      <point x="542" y="113"/>
      <point x="532" y="125"/>
      <point x="517" y="125" type="curve"/>
    </contour>
  </outline>
</glyph>
<glyph name="eng" format="1">
  <advance width="620"/>
  <unicode hex="014B"/>
  <outline>
    <contour>
      <point x="267" y="-105" type="curve"/>
      <point x="252" y="-105" type="line"/>
      <point x="237" y="-105"/>
      <point x="223" y="-117"/>
      <point x="219" y="-132" type="curve"/>
      <point x="205" y="-198" type="line"/>
      <point x="202" y="-213"/>
      <point x="212" y="-225"/>
      <point x="227" y="-225" type="curve"/>
      <point x="262" y="-225" type="line"/>
      <point x="407" y="-225"/>
      <point x="460" y="-164"/>
      <point x="485" y="-45" type="curve"/>
      <point x="557" y="296" type="line"/>
      <point x="584" y="421"/>
      <point x="525" y="530"/>
      <point x="383" y="530" type="curve" smooth="yes"/>
      <point x="320" y="530"/>
      <point x="271" y="507"/>
      <point x="236" y="470" type="curve"/>
      <point x="241" y="493" type="line"/>
      <point x="244" y="508"/>
      <point x="235" y="520"/>
      <point x="220" y="520" type="curve" name="hr01"/>
      <point x="144" y="520" type="line"/>
      <point x="129" y="520"/>
      <point x="114" y="508"/>
      <point x="111" y="493" type="curve"/>
      <point x="12" y="27" type="line"/>
      <point x="9" y="12"/>
      <point x="19" y="0"/>
      <point x="34" y="0" type="curve"/>
      <point x="110" y="0" type="line"/>
      <point x="125" y="0"/>
      <point x="139" y="12"/>
      <point x="142" y="27" type="curve"/>
      <point x="196" y="281" type="line"/>
      <point x="213" y="360"/>
      <point x="268" y="413"/>
      <point x="338" y="413" type="curve" name="hr02" smooth="yes"/>
      <point x="415" y="413"/>
      <point x="441" y="361"/>
      <point x="424" y="281" type="curve"/>
      <point x="356" y="-40" type="line"/>
      <point x="347" y="-81"/>
      <point x="327" y="-105"/>
    </contour>
  </outline>
</glyph>
<glyph name="Scedilla" format="1">
  <advance width="647"/>
  <unicode hex="015E"/>
  <outline>
    <contour>
      <point x="394" y="710" type="curve" smooth="yes"/>
      <point x="224" y="710"/>
      <point x="123" y="634"/>
      <point x="100" y="514" type="curve" smooth="yes"/>
      <point x="79" y="405"/>
      <point x="125" y="336"/>
      <point x="252" y="303" type="curve" smooth="yes"/>
      <point x="393" y="267"/>
      <point x="468" y="259"/>
      <point x="455" y="199" type="curve" smooth="yes"/>
      <point x="442" y="139"/>
      <point x="363" y="115"/>
      <point x="283" y="115" type="curve" smooth="yes"/>
      <point x="183" y="115"/>
      <point x="159" y="152"/>
      <point x="148" y="187" type="curve"/>
      <point x="144" y="203"/>
      <point x="134" y="211"/>
      <point x="112" y="211" type="curve"/>
      <point x="42" y="211" type="line"/>
      <point x="27" y="211"/>
      <point x="12" y="200"/>
      <point x="10" y="184" type="curve" smooth="yes"/>
      <point x="-5" y="85"/>
      <point x="93" y="16"/>
      <point x="208" y="-4" type="curve"/>
      <point x="174" y="-55" type="line"/>
      <point x="161" y="-74"/>
      <point x="163" y="-78"/>
      <point x="169" y="-88" type="curve"/>
      <point x="181" y="-106" type="line"/>
      <point x="194" y="-122"/>
      <point x="214" y="-102"/>
      <point x="236" y="-102" type="curve" smooth="yes"/>
      <point x="261" y="-102"/>
      <point x="271" y="-113"/>
      <point x="267" y="-132" type="curve" smooth="yes"/>
      <point x="263" y="-152"/>
      <point x="247" y="-164"/>
      <point x="223" y="-164" type="curve" smooth="yes"/>
      <point x="182" y="-164"/>
      <point x="188" y="-136"/>
      <point x="161" y="-156" type="curve"/>
      <point x="145" y="-169" type="line"/>
      <point x="118" y="-190"/>
      <point x="173" y="-220"/>
      <point x="221" y="-220" type="curve" smooth="yes"/>
      <point x="286" y="-220"/>
      <point x="318" y="-183"/>
      <point x="328" y="-135" type="curve" smooth="yes"/>
      <point x="339" y="-87"/>
      <point x="315" y="-46"/>
      <point x="271" y="-46" type="curve" smooth="yes"/>
      <point x="256" y="-46"/>
      <point x="243" y="-51"/>
      <point x="234" y="-56" type="curve"/>
      <point x="265" y="-10" type="line"/>
      <point x="276" y="-10" type="line"/>
      <point x="476" y="-10"/>
      <point x="563" y="69"/>
      <point x="588" y="189" type="curve" smooth="yes"/>
      <point x="609" y="291"/>
      <point x="557" y="365"/>
      <point x="404" y="399" type="curve" smooth="yes"/>
      <point x="264" y="430"/>
      <point x="220" y="444"/>
      <point x="233" y="504" type="curve" smooth="yes"/>
      <point x="243" y="554"/>
      <point x="308" y="585"/>
      <point x="378" y="585" type="curve" smooth="yes"/>
      <point x="458" y="585"/>
      <point x="488" y="556"/>
      <point x="501" y="523" type="curve" smooth="yes"/>
      <point x="506" y="508"/>
      <point x="515" y="499"/>
      <point x="537" y="499" type="curve" name="hr01"/>
      <point x="607" y="499" type="line"/>
      <point x="622" y="499"/>
      <point x="637" y="510"/>
      <point x="639" y="526" type="curve" smooth="yes"/>
      <point x="651" y="603"/>
      <point x="564" y="710"/>
    </contour>
  </outline>
</glyph>
<glyph name="scedilla" format="1">
  <advance width="519"/>
  <unicode hex="015F"/>
  <outline>
    <contour>
      <point x="320" y="149" type="curve" smooth="yes"/>
      <point x="314" y="119"/>
      <point x="260" y="110"/>
      <point x="220" y="110" type="curve" smooth="yes"/>
      <point x="130" y="110"/>
      <point x="153" y="156"/>
      <point x="113" y="156" type="curve" name="hr01" smooth="yes"/>
      <point x="36" y="156" type="line" smooth="yes"/>
      <point x="21" y="156"/>
      <point x="4" y="144"/>
      <point x="3" y="129" type="curve" smooth="yes"/>
      <point x="0" y="62"/>
      <point x="74" y="-10"/>
      <point x="204" y="-10" type="curve" smooth="yes"/>
      <point x="364" y="-10"/>
      <point x="431" y="59"/>
      <point x="448" y="139" type="curve" smooth="yes"/>
      <point x="465" y="219"/>
      <point x="436" y="284"/>
      <point x="322" y="309" type="curve" smooth="yes"/>
      <point x="210" y="334"/>
      <point x="188" y="339"/>
      <point x="194" y="369" type="curve" smooth="yes"/>
      <point x="200" y="399"/>
      <point x="239" y="410"/>
      <point x="279" y="410" type="curve" smooth="yes"/>
      <point x="359" y="410"/>
      <point x="338" y="374"/>
      <point x="379" y="374" type="curve" name="hr02" smooth="yes"/>
      <point x="456" y="374" type="line" smooth="yes"/>
      <point x="471" y="374"/>
      <point x="490" y="386"/>
      <point x="489" y="401" type="curve" smooth="yes"/>
      <point x="486" y="466"/>
      <point x="414" y="530"/>
      <point x="294" y="530" type="curve" smooth="yes"/>
      <point x="144" y="530"/>
      <point x="83" y="459"/>
      <point x="66" y="379" type="curve" smooth="yes"/>
      <point x="49" y="299"/>
      <point x="69" y="234"/>
      <point x="181" y="208" type="curve" smooth="yes"/>
      <point x="294" y="182"/>
      <point x="327" y="179"/>
    </contour>
    <contour>
      <point x="166" y="27" type="line"/>
      <point x="111" y="-55" type="line" smooth="yes"/>
      <point x="98" y="-74"/>
      <point x="100" y="-78"/>
      <point x="106" y="-88" type="curve" smooth="yes"/>
      <point x="118" y="-106" type="line"/>
      <point x="131" y="-122"/>
      <point x="151" y="-102"/>
      <point x="173" y="-102" type="curve" smooth="yes"/>
      <point x="198" y="-102"/>
      <point x="208" y="-113"/>
      <point x="204" y="-132" type="curve" smooth="yes"/>
      <point x="200" y="-152"/>
      <point x="184" y="-164"/>
      <point x="160" y="-164" type="curve" smooth="yes"/>
      <point x="119" y="-164"/>
      <point x="125" y="-136"/>
      <point x="98" y="-156" type="curve" smooth="yes"/>
      <point x="82" y="-169" type="line" smooth="yes"/>
      <point x="55" y="-190"/>
      <point x="110" y="-220"/>
      <point x="158" y="-220" type="curve" smooth="yes"/>
      <point x="223" y="-220"/>
      <point x="255" y="-183"/>
      <point x="265" y="-135" type="curve" smooth="yes"/>
      <point x="276" y="-87"/>
      <point x="252" y="-46"/>
      <point x="208" y="-46" type="curve" smooth="yes"/>
      <point x="193" y="-46"/>
      <point x="180" y="-51"/>
      <point x="171" y="-56" type="curve"/>
      <point x="227" y="27" type="line"/>
    </contour>
  </outline>
</glyph>
<glyph name="tbar" format="1">
  <advance width="441"/>
  <unicode hex="0167"/>
  <outline>
    <contour>
      <point x="269" y="400" type="line" name="hr00"/>
      <point x="398" y="400" type="line"/>
      <point x="413" y="400"/>
      <point x="427" y="412"/>
      <point x="430" y="427" type="curve"/>
      <point x="444" y="493" type="line"/>
      <point x="447" y="508"/>
      <point x="438" y="520"/>
      <point x="423" y="520" type="curve"/>
      <point x="294" y="520" type="line"/>
      <point x="329" y="683" type="line"/>
      <point x="332" y="698"/>
      <point x="322" y="710"/>
      <point x="307" y="710" type="curve"/>
      <point x="231" y="710" type="line"/>
      <point x="216" y="710"/>
      <point x="202" y="698"/>
      <point x="199" y="683" type="curve"/>
      <point x="164" y="520" type="line"/>
      <point x="98" y="520" type="line"/>
      <point x="83" y="520"/>
      <point x="68" y="508"/>
      <point x="65" y="493" type="curve"/>
      <point x="51" y="427" type="line"/>
      <point x="48" y="412"/>
      <point x="58" y="400"/>
      <point x="73" y="400" type="curve"/>
      <point x="139" y="400" type="line"/>
      <point x="130" y="358" type="line"/>
      <point x="64" y="358" type="line"/>
      <point x="49" y="358"/>
      <point x="34" y="346"/>
      <point x="31" y="331" type="curve"/>
      <point x="17" y="265" type="line"/>
      <point x="14" y="250"/>
      <point x="23" y="238"/>
      <point x="38" y="238" type="curve"/>
      <point x="104" y="238" type="line"/>
      <point x="93" y="185" type="line"/>
      <point x="68" y="69"/>
      <point x="134" y="0"/>
      <point x="259" y="0" type="curve"/>
      <point x="323" y="0" type="line"/>
      <point x="338" y="0"/>
      <point x="352" y="12"/>
      <point x="355" y="27" type="curve"/>
      <point x="369" y="93" type="line"/>
      <point x="372" y="108"/>
      <point x="363" y="120"/>
      <point x="348" y="120" type="curve"/>
      <point x="267" y="120" type="line"/>
      <point x="220" y="120"/>
      <point x="215" y="147"/>
      <point x="223" y="188" type="curve"/>
      <point x="234" y="238" type="line"/>
      <point x="363" y="238" type="line"/>
      <point x="378" y="238"/>
      <point x="393" y="250"/>
      <point x="396" y="265" type="curve"/>
      <point x="410" y="331" type="line"/>
      <point x="413" y="346"/>
      <point x="404" y="358"/>
      <point x="389" y="358" type="curve"/>
      <point x="260" y="358" type="line"/>
    </contour>
  </outline>
</glyph>
<glyph name="circumflex" format="1">
  <advance width="360"/>
  <unicode hex="02C6"/>
  <outline>
    <contour>
      <point x="192" y="745" type="line" name="hr00" smooth="yes"/>
      <point x="177" y="745"/>
      <point x="167" y="740"/>
      <point x="151" y="726" type="curve" smooth="yes"/>
      <point x="37" y="624" type="line" smooth="yes"/>
      <point x="24" y="612"/>
      <point x="28" y="595"/>
      <point x="42" y="595" type="curve" smooth="yes"/>
      <point x="92" y="595" type="line" smooth="yes"/>
      <point x="105" y="595"/>
      <point x="112" y="598"/>
      <point x="125" y="606" type="curve"/>
      <point x="211" y="653" type="line"/>
      <point x="273" y="606" type="line" smooth="yes"/>
      <point x="284" y="598"/>
      <point x="289" y="595"/>
      <point x="302" y="595" type="curve" smooth="yes"/>
      <point x="338" y="595" type="line" smooth="yes"/>
      <point x="353" y="595"/>
      <point x="364" y="611"/>
      <point x="355" y="624" type="curve" smooth="yes"/>
      <point x="285" y="726" type="line" smooth="yes"/>
      <point x="275" y="740"/>
      <point x="267" y="745"/>
      <point x="252" y="745" type="curve" smooth="yes"/>
    </contour>
  </outline>
</glyph>
<glyph name="commaaccent" format="1">
  <advance width="234"/>
  <unicode hex="0326"/>
  <outline>
    <contour>
      <point x="32" y="-226" type="line" name="hr00" smooth="yes"/>
      <point x="28" y="-238"/>
      <point x="33" y="-250"/>
      <point x="49" y="-250" type="curve"/>
      <point x="95" y="-250" type="line"/>
      <point x="121" y="-250"/>
      <point x="137" y="-231"/>
      <point x="145" y="-218" type="curve"/>
      <point x="230" y="-79" type="line"/>
      <point x="237" y="-67"/>
      <point x="232" y="-50"/>
      <point x="215" y="-50" type="curve"/>
      <point x="134" y="-50" type="line" smooth="yes"/>
      <point x="107" y="-50"/>
      <point x="89" y="-71"/>
      <point x="83" y="-89" type="curve"/>
    </contour>
  </outline>
</glyph>
<glyph name="afii10051" format="1">
  <advance width="754"/>
  <unicode hex="0402"/>
  <outline>
    <contour>
      <point x="509" y="-32" type="line" name="hr00"/>
      <point x="500" y="-73"/>
      <point x="476" y="-100"/>
      <point x="416" y="-100" type="curve"/>
      <point x="401" y="-100" type="line"/>
      <point x="386" y="-100"/>
      <point x="372" y="-112"/>
      <point x="369" y="-127" type="curve"/>
      <point x="353" y="-198" type="line"/>
      <point x="350" y="-213"/>
      <point x="360" y="-225"/>
      <point x="375" y="-225" type="curve"/>
      <point x="423" y="-225" type="line"/>
      <point x="558" y="-225"/>
      <point x="616" y="-161"/>
      <point x="645" y="-27" type="curve"/>
      <point x="704" y="254" type="line"/>
      <point x="736" y="404"/>
      <point x="641" y="500"/>
      <point x="501" y="500" type="curve"/>
      <point x="352" y="500" type="line"/>
      <point x="368" y="575" type="line"/>
      <point x="507" y="575" type="line"/>
      <point x="522" y="575"/>
      <point x="536" y="587"/>
      <point x="539" y="602" type="curve"/>
      <point x="555" y="673" type="line"/>
      <point x="558" y="688"/>
      <point x="548" y="700"/>
      <point x="533" y="700" type="curve"/>
      <point x="129" y="700" type="line"/>
      <point x="114" y="700"/>
      <point x="100" y="688"/>
      <point x="97" y="673" type="curve"/>
      <point x="81" y="602" type="line"/>
      <point x="78" y="587"/>
      <point x="88" y="575"/>
      <point x="103" y="575" type="curve"/>
      <point x="232" y="575" type="line"/>
      <point x="115" y="27" type="line"/>
      <point x="112" y="12"/>
      <point x="122" y="0"/>
      <point x="137" y="0" type="curve"/>
      <point x="218" y="0" type="line"/>
      <point x="233" y="0"/>
      <point x="247" y="12"/>
      <point x="250" y="27" type="curve"/>
      <point x="324" y="375" type="line"/>
      <point x="469" y="375" type="line"/>
      <point x="549" y="375"/>
      <point x="585" y="329"/>
      <point x="568" y="249" type="curve"/>
    </contour>
  </outline>
</glyph>
<glyph name="afii10053" format="1">
  <advance width="681"/>
  <unicode hex="0404"/>
  <outline>
    <contour>
      <point x="620" y="188" type="curve"/>
      <point x="625" y="204"/>
      <point x="614" y="215"/>
      <point x="599" y="215" type="curve" smooth="yes"/>
      <point x="517" y="215" type="line" smooth="yes"/>
      <point x="503" y="215"/>
      <point x="492" y="206"/>
      <point x="487" y="198" type="curve"/>
      <point x="478" y="187"/>
      <point x="435" y="115"/>
      <point x="314" y="115" type="curve" name="hr01" smooth="yes"/>
      <point x="215" y="115"/>
      <point x="165" y="163"/>
      <point x="188" y="288" type="curve"/>
      <point x="422" y="288" type="line" smooth="yes"/>
      <point x="437" y="288"/>
      <point x="451" y="300"/>
      <point x="454" y="315" type="curve" smooth="yes"/>
      <point x="470" y="386" type="line" smooth="yes"/>
      <point x="473" y="401"/>
      <point x="463" y="413"/>
      <point x="448" y="413" type="curve" smooth="yes"/>
      <point x="213" y="413" type="line"/>
      <point x="234" y="511"/>
      <point x="304" y="585"/>
      <point x="414" y="585" type="curve" smooth="yes"/>
      <point x="535" y="585"/>
      <point x="549" y="513"/>
      <point x="552" y="502" type="curve" smooth="yes"/>
      <point x="555" y="494"/>
      <point x="562" y="485"/>
      <point x="576" y="485" type="curve" name="hr02" smooth="yes"/>
      <point x="657" y="485" type="line" smooth="yes"/>
      <point x="672" y="485"/>
      <point x="689" y="496"/>
      <point x="689" y="512" type="curve" smooth="yes"/>
      <point x="689" y="594"/>
      <point x="621" y="710"/>
      <point x="430" y="710" type="curve" smooth="yes"/>
      <point x="213" y="710"/>
      <point x="121" y="595"/>
      <point x="77" y="416" type="curve" smooth="yes"/>
      <point x="64" y="366"/>
      <point x="60" y="348"/>
      <point x="52" y="298" type="curve"/>
      <point x="19" y="117"/>
      <point x="95" y="-10"/>
      <point x="297" y="-10" type="curve" smooth="yes"/>
      <point x="508" y="-10"/>
      <point x="599" y="107"/>
    </contour>
  </outline>
</glyph>
<glyph name="afii10060" format="1">
  <advance width="754"/>
  <unicode hex="040B"/>
  <outline>
    <contour>
      <point x="521" y="27" type="line" name="hr00" smooth="yes"/>
      <point x="518" y="12"/>
      <point x="528" y="0"/>
      <point x="543" y="0" type="curve" smooth="yes"/>
      <point x="624" y="0" type="line" smooth="yes"/>
      <point x="639" y="0"/>
      <point x="653" y="12"/>
      <point x="656" y="27" type="curve" smooth="yes"/>
      <point x="704" y="254" type="line" smooth="yes"/>
      <point x="736" y="404"/>
      <point x="641" y="500"/>
      <point x="501" y="500" type="curve" smooth="yes"/>
      <point x="352" y="500" type="line"/>
      <point x="368" y="575" type="line"/>
      <point x="507" y="575" type="line" smooth="yes"/>
      <point x="522" y="575"/>
      <point x="536" y="587"/>
      <point x="539" y="602" type="curve" smooth="yes"/>
      <point x="555" y="673" type="line" smooth="yes"/>
      <point x="558" y="688"/>
      <point x="548" y="700"/>
      <point x="533" y="700" type="curve" smooth="yes"/>
      <point x="129" y="700" type="line" smooth="yes"/>
      <point x="114" y="700"/>
      <point x="100" y="688"/>
      <point x="97" y="673" type="curve" smooth="yes"/>
      <point x="81" y="602" type="line" smooth="yes"/>
      <point x="78" y="587"/>
      <point x="88" y="575"/>
      <point x="103" y="575" type="curve" smooth="yes"/>
      <point x="232" y="575" type="line"/>
      <point x="115" y="27" type="line" smooth="yes"/>
      <point x="112" y="12"/>
      <point x="122" y="0"/>
      <point x="137" y="0" type="curve" smooth="yes"/>
      <point x="218" y="0" type="line" smooth="yes"/>
      <point x="233" y="0"/>
      <point x="247" y="12"/>
      <point x="250" y="27" type="curve" smooth="yes"/>
      <point x="324" y="375" type="line"/>
      <point x="469" y="375" type="line" smooth="yes"/>
      <point x="549" y="375"/>
      <point x="585" y="329"/>
      <point x="568" y="249" type="curve" smooth="yes"/>
    </contour>
  </outline>
</glyph>
<glyph name="afii10018" format="1">
  <advance width="651"/>
  <unicode hex="0411"/>
  <outline>
    <contour>
      <point x="350" y="0" type="line" name="hr00" smooth="yes"/>
      <point x="497" y="0"/>
      <point x="570" y="85"/>
      <point x="595" y="202" type="curve" smooth="yes"/>
      <point x="622" y="329"/>
      <point x="537" y="424"/>
      <point x="420" y="424" type="curve" smooth="yes"/>
      <point x="241" y="424" type="line"/>
      <point x="273" y="575" type="line"/>
      <point x="602" y="575" type="line" smooth="yes"/>
      <point x="617" y="575"/>
      <point x="631" y="587"/>
      <point x="634" y="602" type="curve" smooth="yes"/>
      <point x="650" y="673" type="line" smooth="yes"/>
      <point x="653" y="688"/>
      <point x="643" y="700"/>
      <point x="628" y="700" type="curve" smooth="yes"/>
      <point x="191" y="700" type="line" smooth="yes"/>
      <point x="176" y="700"/>
      <point x="162" y="688"/>
      <point x="159" y="673" type="curve" smooth="yes"/>
      <point x="21" y="27" type="line" smooth="yes"/>
      <point x="18" y="12"/>
      <point x="28" y="0"/>
      <point x="43" y="0" type="curve" smooth="yes"/>
    </contour>
    <contour>
      <point x="214" y="299" type="line"/>
      <point x="382" y="299" type="line" smooth="yes"/>
      <point x="450" y="299"/>
      <point x="472" y="260"/>
      <point x="462" y="212" type="curve" smooth="yes"/>
      <point x="451" y="164"/>
      <point x="413" y="125"/>
      <point x="345" y="125" type="curve" smooth="yes"/>
      <point x="177" y="125" type="line"/>
    </contour>
  </outline>
</glyph>
<glyph name="afii10021" format="1">
  <advance width="743"/>
  <unicode hex="0414"/>
  <outline>
    <contour>
      <point x="243" y="700" type="line" smooth="yes"/>
      <point x="228" y="700"/>
      <point x="214" y="688"/>
      <point x="211" y="673" type="curve" smooth="yes"/>
      <point x="119" y="243" type="line" smooth="yes"/>
      <point x="102" y="162"/>
      <point x="72" y="125"/>
      <point x="22" y="125" type="curve" smooth="yes"/>
      <point x="8" y="125" type="line" smooth="yes"/>
      <point x="-6" y="124"/>
      <point x="-20" y="112"/>
      <point x="-23" y="98" type="curve" smooth="yes"/>
      <point x="-61" y="-83" type="line" smooth="yes"/>
      <point x="-64" y="-98"/>
      <point x="-55" y="-110"/>
      <point x="-40" y="-110" type="curve" smooth="yes"/>
      <point x="41" y="-110" type="line" smooth="yes"/>
      <point x="56" y="-110"/>
      <point x="71" y="-98"/>
      <point x="74" y="-83" type="curve" smooth="yes"/>
      <point x="92" y="0" type="line" name="hr01"/>
      <point x="501" y="0" type="line"/>
      <point x="483" y="-83" type="line" smooth="yes"/>
      <point x="480" y="-98"/>
      <point x="489" y="-110"/>
      <point x="504" y="-110" type="curve" name="hr02" smooth="yes"/>
      <point x="585" y="-110" type="line" smooth="yes"/>
      <point x="600" y="-110"/>
      <point x="615" y="-98"/>
      <point x="618" y="-83" type="curve" smooth="yes"/>
      <point x="656" y="98" type="line"/>
      <point x="660" y="113"/>
      <point x="650" y="125"/>
      <point x="635" y="125" type="curve" smooth="yes"/>
      <point x="602" y="125" type="line"/>
      <point x="719" y="673" type="line" smooth="yes"/>
      <point x="722" y="688"/>
      <point x="712" y="700"/>
      <point x="697" y="700" type="curve" smooth="yes"/>
    </contour>
    <contour>
      <point x="208" y="125" type="line"/>
      <point x="234" y="151"/>
      <point x="246" y="203"/>
      <point x="252" y="233" type="curve" smooth="yes"/>
      <point x="325" y="575" type="line"/>
      <point x="563" y="575" type="line"/>
      <point x="467" y="125" type="line"/>
    </contour>
  </outline>
</glyph>
<glyph name="afii10024" format="1">
  <advance width="788"/>
  <unicode hex="0416"/>
  <outline>
    <contour>
      <point x="665" y="0" type="line" name="hr00" smooth="yes"/>
      <point x="684" y="0"/>
      <point x="705" y="22"/>
      <point x="695" y="42" type="curve" smooth="yes"/>
      <point x="545" y="336" type="line"/>
      <point x="847" y="662" type="line" smooth="yes"/>
      <point x="860" y="677"/>
      <point x="852" y="700"/>
      <point x="831" y="700" type="curve" smooth="yes"/>
      <point x="731" y="700" type="line" smooth="yes"/>
      <point x="705" y="700"/>
      <point x="690" y="682"/>
      <point x="684" y="675" type="curve" smooth="yes"/>
      <point x="503" y="479" type="line"/>
      <point x="545" y="673" type="line" smooth="yes"/>
      <point x="548" y="688"/>
      <point x="538" y="700"/>
      <point x="523" y="700" type="curve" smooth="yes"/>
      <point x="442" y="700" type="line" smooth="yes"/>
      <point x="427" y="700"/>
      <point x="413" y="688"/>
      <point x="410" y="673" type="curve" smooth="yes"/>
      <point x="368" y="479" type="line"/>
      <point x="269" y="675" type="line" smooth="yes"/>
      <point x="265" y="682"/>
      <point x="258" y="700"/>
      <point x="232" y="700" type="curve" smooth="yes"/>
      <point x="161" y="700" type="line" smooth="yes"/>
      <point x="137" y="700"/>
      <point x="121" y="679"/>
      <point x="130" y="660" type="curve" smooth="yes"/>
      <point x="273" y="375" type="line"/>
      <point x="-42" y="38" type="line" smooth="yes"/>
      <point x="-55" y="24"/>
      <point x="-48" y="0"/>
      <point x="-26" y="0" type="curve" smooth="yes"/>
      <point x="75" y="0" type="line" smooth="yes"/>
      <point x="101" y="0"/>
      <point x="115" y="18"/>
      <point x="122" y="25" type="curve" smooth="yes"/>
      <point x="316" y="232" type="line"/>
      <point x="272" y="27" type="line" smooth="yes"/>
      <point x="269" y="12"/>
      <point x="279" y="0"/>
      <point x="294" y="0" type="curve" smooth="yes"/>
      <point x="375" y="0" type="line" smooth="yes"/>
      <point x="390" y="0"/>
      <point x="404" y="12"/>
      <point x="407" y="27" type="curve" smooth="yes"/>
      <point x="450" y="231" type="line"/>
      <point x="557" y="25" type="line" smooth="yes"/>
      <point x="561" y="18"/>
      <point x="569" y="0"/>
      <point x="594" y="0" type="curve" smooth="yes"/>
    </contour>
  </outline>
</glyph>
<glyph name="afii10042" format="1">
  <advance width="915"/>
  <unicode hex="0428"/>
  <outline>
    <contour>
      <point x="746" y="0" type="line" name="hr00" smooth="yes"/>
      <point x="761" y="0"/>
      <point x="775" y="12"/>
      <point x="778" y="27" type="curve" smooth="yes"/>
      <point x="916" y="673" type="line" smooth="yes"/>
      <point x="919" y="688"/>
      <point x="909" y="700"/>
      <point x="894" y="700" type="curve" smooth="yes"/>
      <point x="813" y="700" type="line" smooth="yes"/>
      <point x="798" y="700"/>
      <point x="784" y="688"/>
      <point x="781" y="673" type="curve" smooth="yes"/>
      <point x="664" y="125" type="line"/>
      <point x="488" y="125" type="line"/>
      <point x="605" y="673" type="line" smooth="yes"/>
      <point x="608" y="688"/>
      <point x="598" y="700"/>
      <point x="583" y="700" type="curve" smooth="yes"/>
      <point x="502" y="700" type="line" smooth="yes"/>
      <point x="487" y="700"/>
      <point x="473" y="688"/>
      <point x="470" y="673" type="curve" smooth="yes"/>
      <point x="353" y="125" type="line"/>
      <point x="177" y="125" type="line"/>
      <point x="294" y="673" type="line" smooth="yes"/>
      <point x="297" y="688"/>
      <point x="287" y="700"/>
      <point x="272" y="700" type="curve" smooth="yes"/>
      <point x="191" y="700" type="line" smooth="yes"/>
      <point x="176" y="700"/>
      <point x="162" y="688"/>
      <point x="159" y="673" type="curve" smooth="yes"/>
      <point x="21" y="27" type="line" smooth="yes"/>
      <point x="18" y="12"/>
      <point x="28" y="0"/>
      <point x="43" y="0" type="curve" smooth="yes"/>
    </contour>
  </outline>
</glyph>
<glyph name="afii10044" format="1">
  <advance width="713"/>
  <unicode hex="042A"/>
  <outline>
    <contour>
      <point x="97" y="673" type="curve" name="hr00"/>
      <point x="81" y="602" type="line"/>
      <point x="78" y="587"/>
      <point x="88" y="575"/>
      <point x="103" y="575" type="curve"/>
      <point x="209" y="575" type="line"/>
      <point x="92" y="27" type="line"/>
      <point x="89" y="12"/>
      <point x="99" y="0"/>
      <point x="114" y="0" type="curve"/>
      <point x="421" y="0" type="line"/>
      <point x="568" y="0"/>
      <point x="641" y="85"/>
      <point x="666" y="202" type="curve" smooth="yes"/>
      <point x="693" y="329"/>
      <point x="608" y="424"/>
      <point x="491" y="424" type="curve"/>
      <point x="312" y="424" type="line"/>
      <point x="365" y="673" type="line"/>
      <point x="368" y="688"/>
      <point x="358" y="700"/>
      <point x="343" y="700" type="curve"/>
      <point x="129" y="700" type="line"/>
      <point x="114" y="700"/>
      <point x="100" y="688"/>
    </contour>
    <contour>
      <point x="285" y="299" type="line"/>
      <point x="453" y="299" type="line"/>
      <point x="521" y="299"/>
      <point x="543" y="260"/>
      <point x="533" y="212" type="curve" smooth="yes"/>
      <point x="522" y="164"/>
      <point x="484" y="125"/>
      <point x="416" y="125" type="curve"/>
      <point x="248" y="125" type="line"/>
    </contour>
  </outline>
</glyph>
<glyph name="afii10047" format="1">
  <advance width="682"/>
  <unicode hex="042D"/>
  <outline>
    <contour>
      <point x="15" y="188" type="curve" smooth="yes"/>
      <point x="8" y="108"/>
      <point x="93" y="-10"/>
      <point x="274" y="-10" type="curve" smooth="yes"/>
      <point x="506" y="-10"/>
      <point x="583" y="102"/>
      <point x="628" y="283" type="curve" smooth="yes"/>
      <point x="640" y="333"/>
      <point x="644" y="351"/>
      <point x="653" y="401" type="curve" smooth="yes"/>
      <point x="685" y="580"/>
      <point x="594" y="710"/>
      <point x="407" y="710" type="curve" smooth="yes"/>
      <point x="196" y="710"/>
      <point x="106" y="593"/>
      <point x="84" y="512" type="curve" smooth="yes"/>
      <point x="80" y="496"/>
      <point x="91" y="485"/>
      <point x="106" y="485" type="curve" smooth="yes"/>
      <point x="187" y="485" type="line" smooth="yes"/>
      <point x="201" y="485"/>
      <point x="212" y="494"/>
      <point x="217" y="502" type="curve" smooth="yes"/>
      <point x="226" y="513"/>
      <point x="270" y="585"/>
      <point x="391" y="585" type="curve" name="hr01" smooth="yes"/>
      <point x="501" y="585"/>
      <point x="539" y="511"/>
      <point x="518" y="413" type="curve"/>
      <point x="283" y="413" type="line" smooth="yes"/>
      <point x="268" y="413"/>
      <point x="254" y="401"/>
      <point x="251" y="386" type="curve" smooth="yes"/>
      <point x="235" y="315" type="line" smooth="yes"/>
      <point x="232" y="300"/>
      <point x="242" y="288"/>
      <point x="257" y="288" type="curve" smooth="yes"/>
      <point x="491" y="288" type="line"/>
      <point x="460" y="163"/>
      <point x="390" y="115"/>
      <point x="291" y="115" type="curve" smooth="yes"/>
      <point x="170" y="115"/>
      <point x="156" y="187"/>
      <point x="153" y="198" type="curve" smooth="yes"/>
      <point x="150" y="206"/>
      <point x="143" y="215"/>
      <point x="129" y="215" type="curve" name="hr02" smooth="yes"/>
      <point x="48" y="215" type="line" smooth="yes"/>
      <point x="33" y="215"/>
      <point x="16" y="204"/>
    </contour>
  </outline>
</glyph>
<glyph name="afii10066" format="1">
  <advance width="584"/>
  <unicode hex="0431"/>
  <outline>
    <contour>
      <point x="34" y="250" type="curve" name="hr00" smooth="yes"/>
      <point x="1" y="98"/>
      <point x="109" y="-10"/>
      <point x="238" y="-10" type="curve" smooth="yes"/>
      <point x="387" y="-10"/>
      <point x="494" y="58"/>
      <point x="528" y="220" type="curve" smooth="yes"/>
      <point x="563" y="382"/>
      <point x="449" y="470"/>
      <point x="330" y="470" type="curve" smooth="yes"/>
      <point x="315" y="470"/>
      <point x="300" y="469"/>
      <point x="286" y="467" type="curve"/>
      <point x="366" y="554"/>
      <point x="455" y="613"/>
      <point x="474" y="703" type="curve" smooth="yes"/>
      <point x="477" y="718"/>
      <point x="468" y="730"/>
      <point x="453" y="730" type="curve" smooth="yes"/>
      <point x="377" y="730" type="line" smooth="yes"/>
      <point x="362" y="730"/>
      <point x="347" y="718"/>
      <point x="344" y="703" type="curve" smooth="yes"/>
      <point x="320" y="591"/>
      <point x="95" y="539"/>
    </contour>
    <contour>
      <point x="158" y="230" type="curve" smooth="yes"/>
      <point x="173" y="297"/>
      <point x="226" y="350"/>
      <point x="305" y="350" type="curve" smooth="yes"/>
      <point x="384" y="350"/>
      <point x="415" y="297"/>
      <point x="400" y="230" type="curve" smooth="yes"/>
      <point x="386" y="163"/>
      <point x="333" y="110"/>
      <point x="254" y="110" type="curve" smooth="yes"/>
      <point x="175" y="110"/>
      <point x="144" y="163"/>
    </contour>
  </outline>
</glyph>
<glyph name="afii10074" format="1">
  <advance width="637"/>
  <unicode hex="0438"/>
  <outline>
    <contour>
      <point x="479" y="0" type="line" name="hr00" smooth="yes"/>
      <point x="494" y="0"/>
      <point x="508" y="12"/>
      <point x="511" y="27" type="curve" smooth="yes"/>
      <point x="610" y="493" type="line" smooth="yes"/>
      <point x="613" y="508"/>
      <point x="604" y="520"/>
      <point x="589" y="520" type="curve" smooth="yes"/>
      <point x="503" y="520" type="line" smooth="yes"/>
      <point x="492" y="520"/>
      <point x="485" y="516"/>
      <point x="478" y="509" type="curve" smooth="yes"/>
      <point x="182" y="213" type="line"/>
      <point x="241" y="493" type="line" smooth="yes"/>
      <point x="244" y="508"/>
      <point x="235" y="520"/>
      <point x="220" y="520" type="curve" smooth="yes"/>
      <point x="144" y="520" type="line" smooth="yes"/>
      <point x="129" y="520"/>
      <point x="114" y="508"/>
      <point x="111" y="493" type="curve" smooth="yes"/>
      <point x="12" y="27" type="line" smooth="yes"/>
      <point x="9" y="12"/>
      <point x="19" y="0"/>
      <point x="34" y="0" type="curve" smooth="yes"/>
      <point x="120" y="0" type="line" smooth="yes"/>
      <point x="129" y="0"/>
      <point x="137" y="3"/>
      <point x="145" y="11" type="curve" smooth="yes"/>
      <point x="441" y="307" type="line"/>
      <point x="381" y="27" type="line" smooth="yes"/>
      <point x="378" y="12"/>
      <point x="388" y="0"/>
      <point x="403" y="0" type="curve" smooth="yes"/>
    </contour>
  </outline>
</glyph>
<glyph name="afii10084" format="1">
  <advance width="540"/>
  <unicode hex="0442"/>
  <outline>
    <contour>
      <point x="89" y="520" type="line" name="hr00" smooth="yes"/>
      <point x="74" y="520"/>
      <point x="59" y="508"/>
      <point x="56" y="493" type="curve" smooth="yes"/>
      <point x="42" y="427" type="line" smooth="yes"/>
      <point x="39" y="412"/>
      <point x="49" y="400"/>
      <point x="64" y="400" type="curve" smooth="yes"/>
      <point x="228" y="400" type="line"/>
      <point x="148" y="27" type="line" smooth="yes"/>
      <point x="145" y="12"/>
      <point x="155" y="0"/>
      <point x="170" y="0" type="curve" smooth="yes"/>
      <point x="246" y="0" type="line" smooth="yes"/>
      <point x="261" y="0"/>
      <point x="275" y="12"/>
      <point x="278" y="27" type="curve" smooth="yes"/>
      <point x="358" y="400" type="line"/>
      <point x="522" y="400" type="line" smooth="yes"/>
      <point x="537" y="400"/>
      <point x="551" y="412"/>
      <point x="554" y="427" type="curve" smooth="yes"/>
      <point x="568" y="493" type="line" smooth="yes"/>
      <point x="571" y="508"/>
      <point x="562" y="520"/>
      <point x="547" y="520" type="curve" smooth="yes"/>
    </contour>
  </outline>
</glyph>
<glyph name="afii10085" format="1">
  <advance width="596"/>
  <unicode hex="0443"/>
  <outline>
    <contour>
      <point x="59" y="-70" type="curve" name="hr00"/>
      <point x="23" y="-70" type="line" smooth="yes"/>
      <point x="8" y="-70"/>
      <point x="-7" y="-82"/>
      <point x="-10" y="-97" type="curve" smooth="yes"/>
      <point x="-24" y="-163" type="line"/>
      <point x="-27" y="-178"/>
      <point x="-18" y="-190"/>
      <point x="-3" y="-190" type="curve" smooth="yes"/>
      <point x="69" y="-190" type="line" smooth="yes"/>
      <point x="172" y="-190"/>
      <point x="221" y="-125"/>
      <point x="292" y="-14" type="curve" smooth="yes"/>
      <point x="612" y="486" type="line" smooth="yes"/>
      <point x="621" y="500"/>
      <point x="613" y="520"/>
      <point x="593" y="520" type="curve" smooth="yes"/>
      <point x="509" y="520" type="line" smooth="yes"/>
      <point x="493" y="520"/>
      <point x="478" y="507"/>
      <point x="471" y="496" type="curve" smooth="yes"/>
      <point x="266" y="177" type="line"/>
      <point x="197" y="496" type="line" smooth="yes"/>
      <point x="195" y="507"/>
      <point x="185" y="520"/>
      <point x="169" y="520" type="curve" smooth="yes"/>
      <point x="95" y="520" type="line" smooth="yes"/>
      <point x="72" y="520"/>
      <point x="67" y="503"/>
      <point x="70" y="486" type="curve" smooth="yes"/>
      <point x="167" y="25" type="line"/>
      <point x="145" y="-14" type="line" smooth="yes"/>
      <point x="122" y="-50"/>
      <point x="95" y="-70"/>
    </contour>
  </outline>
</glyph>
<glyph name="afii10093" format="1">
  <advance width="773"/>
  <unicode hex="044B"/>
  <outline>
    <contour>
      <point x="616" y="493" type="curve"/>
      <point x="517" y="27" type="line" smooth="yes"/>
      <point x="514" y="12"/>
      <point x="524" y="0"/>
      <point x="539" y="0" type="curve" smooth="yes"/>
      <point x="615" y="0" type="line" smooth="yes"/>
      <point x="630" y="0"/>
      <point x="644" y="12"/>
      <point x="647" y="27" type="curve" smooth="yes"/>
      <point x="746" y="493" type="line" smooth="yes"/>
      <point x="749" y="508"/>
      <point x="740" y="520"/>
      <point x="725" y="520" type="curve" smooth="yes"/>
      <point x="649" y="520" type="line" smooth="yes"/>
      <point x="634" y="520"/>
      <point x="619" y="508"/>
    </contour>
    <contour>
      <point x="503" y="197" type="curve" smooth="yes"/>
      <point x="529" y="318"/>
      <point x="436" y="404"/>
      <point x="315" y="404" type="curve" name="hr01" smooth="yes"/>
      <point x="222" y="404" type="line"/>
      <point x="241" y="493" type="line" smooth="yes"/>
      <point x="244" y="508"/>
      <point x="235" y="520"/>
      <point x="220" y="520" type="curve" name="hr02" smooth="yes"/>
      <point x="144" y="520" type="line" smooth="yes"/>
      <point x="129" y="520"/>
      <point x="114" y="508"/>
      <point x="111" y="493" type="curve" smooth="yes"/>
      <point x="12" y="27" type="line" smooth="yes"/>
      <point x="9" y="12"/>
      <point x="19" y="0"/>
      <point x="34" y="0" type="curve" smooth="yes"/>
      <point x="250" y="0" type="line" smooth="yes"/>
      <point x="401" y="0"/>
      <point x="478" y="76"/>
    </contour>
    <contour>
      <point x="197" y="284" type="line"/>
      <point x="283" y="284" type="line" smooth="yes"/>
      <point x="350" y="284"/>
      <point x="392" y="269"/>
      <point x="377" y="202" type="curve" smooth="yes"/>
      <point x="363" y="135"/>
      <point x="315" y="120"/>
      <point x="248" y="120" type="curve" smooth="yes"/>
      <point x="162" y="120" type="line"/>
    </contour>
  </outline>
</glyph>
<glyph name="afii10097" format="1">
  <advance width="589"/>
  <unicode hex="044F"/>
  <outline>
    <contour>
      <point x="59" y="335" type="curve" name="hr00"/>
      <point x="42" y="258"/>
      <point x="67" y="204"/>
      <point x="117" y="174" type="curve"/>
      <point x="-11" y="37" type="line" smooth="yes"/>
      <point x="-13" y="34"/>
      <point x="-16" y="30"/>
      <point x="-18" y="23" type="curve" smooth="yes"/>
      <point x="-20" y="11"/>
      <point x="-11" y="0"/>
      <point x="2" y="0" type="curve" smooth="yes"/>
      <point x="95" y="0" type="line" smooth="yes"/>
      <point x="112" y="0"/>
      <point x="124" y="13"/>
      <point x="131" y="19" type="curve"/>
      <point x="256" y="148" type="line"/>
      <point x="359" y="148" type="line"/>
      <point x="333" y="27" type="line" smooth="yes"/>
      <point x="330" y="12"/>
      <point x="340" y="0"/>
      <point x="355" y="0" type="curve" smooth="yes"/>
      <point x="431" y="0" type="line" smooth="yes"/>
      <point x="446" y="0"/>
      <point x="460" y="12"/>
      <point x="463" y="27" type="curve" smooth="yes"/>
      <point x="562" y="493" type="line" smooth="yes"/>
      <point x="565" y="508"/>
      <point x="556" y="520"/>
      <point x="541" y="520" type="curve" smooth="yes"/>
      <point x="300" y="520" type="line" smooth="yes"/>
      <point x="159" y="520"/>
      <point x="84" y="456"/>
    </contour>
    <contour>
      <point x="384" y="268" type="line"/>
      <point x="259" y="268" type="line" smooth="yes"/>
      <point x="197" y="268"/>
      <point x="179" y="287"/>
      <point x="188" y="334" type="curve" smooth="yes"/>
      <point x="198" y="381"/>
      <point x="226" y="400"/>
      <point x="288" y="400" type="curve" smooth="yes"/>
      <point x="413" y="400" type="line"/>
    </contour>
  </outline>
</glyph>
<glyph name="afii10099" format="1">
  <advance width="619"/>
  <unicode hex="0452"/>
  <outline>
    <contour>
      <point x="555" y="286" type="line" smooth="yes"/>
      <point x="582" y="411"/>
      <point x="525" y="530"/>
      <point x="383" y="530" type="curve" smooth="yes"/>
      <point x="320" y="530"/>
      <point x="269" y="505"/>
      <point x="236" y="470" type="curve"/>
      <point x="254" y="554" type="line"/>
      <point x="307" y="554" type="line" smooth="yes"/>
      <point x="322" y="554"/>
      <point x="337" y="566"/>
      <point x="340" y="581" type="curve" smooth="yes"/>
      <point x="348" y="617" type="line" smooth="yes"/>
      <point x="351" y="632"/>
      <point x="341" y="644"/>
      <point x="326" y="644" type="curve" smooth="yes"/>
      <point x="273" y="644" type="line"/>
      <point x="282" y="683" type="line" smooth="yes"/>
      <point x="285" y="698"/>
      <point x="275" y="710"/>
      <point x="260" y="710" type="curve" name="hr01" smooth="yes"/>
      <point x="184" y="710" type="line" smooth="yes"/>
      <point x="169" y="710"/>
      <point x="155" y="698"/>
      <point x="152" y="683" type="curve" smooth="yes"/>
      <point x="143" y="644" type="line" name="hr02"/>
      <point x="90" y="644" type="line" smooth="yes"/>
      <point x="75" y="644"/>
      <point x="61" y="632"/>
      <point x="58" y="617" type="curve" smooth="yes"/>
      <point x="50" y="581" type="line" smooth="yes"/>
      <point x="47" y="566"/>
      <point x="56" y="554"/>
      <point x="71" y="554" type="curve" smooth="yes"/>
      <point x="124" y="554" type="line"/>
      <point x="12" y="27" type="line" smooth="yes"/>
      <point x="9" y="12"/>
      <point x="19" y="0"/>
      <point x="34" y="0" type="curve" smooth="yes"/>
      <point x="110" y="0" type="line" smooth="yes"/>
      <point x="125" y="0"/>
      <point x="139" y="12"/>
      <point x="142" y="27" type="curve" smooth="yes"/>
      <point x="196" y="281" type="line" smooth="yes"/>
      <point x="213" y="360"/>
      <point x="258" y="413"/>
      <point x="348" y="413" type="curve" smooth="yes"/>
      <point x="425" y="413"/>
      <point x="441" y="361"/>
      <point x="424" y="281" type="curve" smooth="yes"/>
      <point x="356" y="-40" type="line" smooth="yes"/>
      <point x="347" y="-81"/>
      <point x="327" y="-105"/>
      <point x="267" y="-105" type="curve" smooth="yes"/>
      <point x="252" y="-105" type="line" smooth="yes"/>
      <point x="237" y="-105"/>
      <point x="223" y="-117"/>
      <point x="219" y="-132" type="curve"/>
      <point x="205" y="-198" type="line" smooth="yes"/>
      <point x="202" y="-213"/>
      <point x="212" y="-225"/>
      <point x="227" y="-225" type="curve" smooth="yes"/>
      <point x="262" y="-225" type="line" smooth="yes"/>
      <point x="397" y="-225"/>
      <point x="460" y="-164"/>
      <point x="485" y="-45" type="curve" smooth="yes"/>
    </contour>
  </outline>
</glyph>
<glyph name="afii10101" format="1">
  <advance width="575"/>
  <unicode hex="0454"/>
  <outline>
    <contour>
      <point x="254" y="110" type="curve" smooth="yes"/>
      <point x="206" y="110"/>
      <point x="160" y="135"/>
      <point x="159" y="200" type="curve"/>
      <point x="279" y="200" type="line" smooth="yes"/>
      <point x="294" y="200"/>
      <point x="309" y="212"/>
      <point x="312" y="227" type="curve" smooth="yes"/>
      <point x="326" y="293" type="line" smooth="yes"/>
      <point x="329" y="308"/>
      <point x="320" y="320"/>
      <point x="305" y="320" type="curve" smooth="yes"/>
      <point x="185" y="320" type="line"/>
      <point x="214" y="384"/>
      <point x="270" y="410"/>
      <point x="318" y="410" type="curve" smooth="yes"/>
      <point x="384" y="410"/>
      <point x="400" y="387"/>
      <point x="414" y="356" type="curve" smooth="yes"/>
      <point x="420" y="344"/>
      <point x="426" y="329"/>
      <point x="441" y="329" type="curve" name="hr01" smooth="yes"/>
      <point x="517" y="329" type="line" smooth="yes"/>
      <point x="532" y="329"/>
      <point x="548" y="341"/>
      <point x="550" y="356" type="curve" smooth="yes"/>
      <point x="559" y="413"/>
      <point x="505" y="530"/>
      <point x="333" y="530" type="curve" smooth="yes"/>
      <point x="167" y="530"/>
      <point x="81" y="428"/>
      <point x="46" y="305" type="curve" smooth="yes"/>
      <point x="39" y="280"/>
      <point x="32" y="248"/>
      <point x="29" y="224" type="curve" smooth="yes"/>
      <point x="13" y="102"/>
      <point x="102" y="-10"/>
      <point x="238" y="-10" type="curve" smooth="yes"/>
      <point x="430" y="-10"/>
      <point x="494" y="107"/>
      <point x="509" y="164" type="curve" smooth="yes"/>
      <point x="514" y="179"/>
      <point x="503" y="191"/>
      <point x="488" y="191" type="curve" smooth="yes"/>
      <point x="407" y="191" type="line" smooth="yes"/>
      <point x="392" y="191"/>
      <point x="379" y="176"/>
      <point x="368" y="164" type="curve" smooth="yes"/>
      <point x="341" y="133"/>
      <point x="320" y="110"/>
    </contour>
  </outline>
</glyph>
<glyph name="sindothebrew" format="1">
  <advance width="100"/>
  <unicode hex="05C2"/>
  <outline>
    <contour>
      <point x="146" y="516" type="line" smooth="yes"/>
      <point x="159" y="516"/>
      <point x="170" y="525"/>
      <point x="173" y="538" type="curve" smooth="yes"/>
      <point x="181" y="578" type="line" smooth="yes"/>
      <point x="184" y="591"/>
      <point x="177" y="600"/>
      <point x="164" y="600" type="curve" smooth="yes"/>
      <point x="124" y="600" type="line" smooth="yes"/>
      <point x="111" y="600"/>
      <point x="100" y="591"/>
      <point x="97" y="578" type="curve" smooth="yes"/>
      <point x="89" y="538" type="line" smooth="yes"/>
      <point x="86" y="525"/>
      <point x="94" y="516"/>
      <point x="107" y="516" type="curve" smooth="yes"/>
    </contour>
    <contour>
      <point x="-31" y="415" type="move" name="_topleft"/>
    </contour>
  </outline>
</glyph>
<glyph name="finalkafhebrew" format="1">
  <advance width="559"/>
  <unicode hex="05DA"/>
  <outline>
    <contour>
      <point x="298" y="-100" type="line" smooth="yes"/>
      <point x="295" y="-114"/>
      <point x="304" y="-124"/>
      <point x="317" y="-124" type="curve" smooth="yes"/>
      <point x="398" y="-124" type="line" smooth="yes"/>
      <point x="412" y="-124"/>
      <point x="424" y="-114"/>
      <point x="427" y="-100" type="curve" smooth="yes"/>
      <point x="518" y="327" type="line" smooth="yes"/>
      <point x="554" y="500"/>
      <point x="480" y="571"/>
      <point x="304" y="571" type="curve" smooth="yes"/>
      <point x="146" y="571" type="line"/>
      <point x="132" y="571"/>
      <point x="120" y="561"/>
      <point x="117" y="547" type="curve" smooth="yes"/>
      <point x="104" y="488" type="line" smooth="yes"/>
      <point x="101" y="475"/>
      <point x="109" y="464"/>
      <point x="123" y="464" type="curve" smooth="yes"/>
      <point x="275" y="464" type="line" smooth="yes"/>
      <point x="374" y="464"/>
      <point x="407" y="412"/>
      <point x="388" y="322" type="curve" smooth="yes"/>
    </contour>
    <contour>
      <point x="250" y="260" type="move" name="center"/>
    </contour>
    <contour>
      <point x="356" y="520" type="move" name="top"/>
    </contour>
    <contour>
      <point x="7" y="0" type="move" name="bottomleft"/>
    </contour>
    <contour>
      <point x="118" y="520" type="move" name="topleft"/>
    </contour>
    <contour>
      <point x="198" y="238" type="move" name="bottom"/>
    </contour>
  </outline>
</glyph>
<glyph name="finaltsadihebrew" format="1">
  <advance width="524"/>
  <unicode hex="05E5"/>
  <outline>
    <contour>
      <point x="314" y="-124" type="line" smooth="yes"/>
      <point x="325" y="-124"/>
      <point x="337" y="-115"/>
      <point x="339" y="-104" type="curve" smooth="yes"/>
      <point x="340" y="-99"/>
      <point x="339" y="-95"/>
      <point x="337" y="-87" type="curve" smooth="yes"/>
      <point x="289" y="183" type="line"/>
      <point x="409" y="214"/>
      <point x="505" y="298"/>
      <point x="534" y="437" type="curve" smooth="yes"/>
      <point x="557" y="546" type="line" smooth="yes"/>
      <point x="561" y="560"/>
      <point x="553" y="571"/>
      <point x="539" y="571" type="curve" smooth="yes"/>
      <point x="467" y="571" type="line" smooth="yes"/>
      <point x="453" y="571"/>
      <point x="440" y="561"/>
      <point x="437" y="546" type="curve" smooth="yes"/>
      <point x="415" y="443" type="line" smooth="yes"/>
      <point x="397" y="358"/>
      <point x="348" y="306"/>
      <point x="270" y="293" type="curve"/>
      <point x="224" y="547" type="line"/>
      <point x="222" y="562"/>
      <point x="216" y="571"/>
      <point x="200" y="571" type="curve" smooth="yes"/>
      <point x="118" y="571" type="line" smooth="yes"/>
      <point x="107" y="571"/>
      <point x="95" y="562"/>
      <point x="92" y="551" type="curve" smooth="yes"/>
      <point x="91" y="546"/>
      <point x="92" y="543"/>
      <point x="93" y="534" type="curve" smooth="yes"/>
      <point x="207" y="-105" type="line" smooth="yes"/>
      <point x="209" y="-115"/>
      <point x="215" y="-124"/>
      <point x="231" y="-124" type="curve" smooth="yes"/>
    </contour>
    <contour>
      <point x="268" y="260" type="move" name="center"/>
    </contour>
    <contour>
      <point x="324" y="520" type="move" name="top"/>
    </contour>
    <contour>
      <point x="-29" y="0" type="move" name="bottomleft"/>
    </contour>
    <contour>
      <point x="82" y="520" type="move" name="topleft"/>
    </contour>
    <contour>
      <point x="213" y="0" type="move" name="bottom"/>
    </contour>
  </outline>
</glyph>
<glyph name="endash" format="1">
  <advance width="574"/>
  <unicode hex="2013"/>
  <outline>
    <contour>
      <point x="473" y="240" type="line" name="hr00"/>
      <point x="488" y="240"/>
      <point x="502" y="252"/>
      <point x="505" y="267" type="curve" smooth="yes"/>
      <point x="519" y="333" type="line"/>
      <point x="522" y="348"/>
      <point x="513" y="360"/>
      <point x="498" y="360" type="curve" smooth="yes"/>
      <point x="103" y="360" type="line" smooth="yes"/>
      <point x="88" y="360"/>
      <point x="73" y="348"/>
      <point x="70" y="333" type="curve"/>
      <point x="56" y="267" type="line" smooth="yes"/>
      <point x="53" y="252"/>
      <point x="63" y="240"/>
      <point x="78" y="240" type="curve" smooth="yes"/>
    </contour>
  </outline>
</glyph>
<glyph name="zeroinferior" format="1">
  <advance width="370"/>
  <unicode hex="2080"/>
  <outline>
    <contour>
      <point x="153" y="185" type="curve" name="hr00" smooth="yes"/>
      <point x="45" y="185"/>
      <point x="6" y="127"/>
      <point x="-12" y="65" type="curve" smooth="yes"/>
      <point x="-22" y="31"/>
      <point x="-31" y="-12"/>
      <point x="-35" y="-46" type="curve" smooth="yes"/>
      <point x="-44" y="-108"/>
      <point x="8" y="-175"/>
      <point x="96" y="-175" type="curve" smooth="yes"/>
      <point x="204" y="-175"/>
      <point x="242" y="-118"/>
      <point x="261" y="-56" type="curve" smooth="yes"/>
      <point x="271" y="-22"/>
      <point x="280" y="21"/>
      <point x="284" y="55" type="curve" smooth="yes"/>
      <point x="292" y="117"/>
      <point x="241" y="185"/>
    </contour>
    <contour>
      <point x="168" y="-41" type="curve" smooth="yes"/>
      <point x="159" y="-67"/>
      <point x="143" y="-89"/>
      <point x="105" y="-89" type="curve" smooth="yes"/>
      <point x="67" y="-89"/>
      <point x="59" y="-67"/>
      <point x="62" y="-41" type="curve" smooth="yes"/>
      <point x="63" y="-26"/>
      <point x="76" y="36"/>
      <point x="81" y="51" type="curve" smooth="yes"/>
      <point x="90" y="77"/>
      <point x="107" y="99"/>
      <point x="145" y="99" type="curve" smooth="yes"/>
      <point x="184" y="99"/>
      <point x="190" y="77"/>
      <point x="187" y="51" type="curve" smooth="yes"/>
      <point x="186" y="36"/>
      <point x="173" y="-26"/>
    </contour>
  </outline>
</glyph>
<glyph name="fiveinferior" format="1">
  <advance width="344"/>
  <unicode hex="2085"/>
  <outline>
    <contour>
      <point x="266" y="158" type="line" smooth="yes"/>
      <point x="269" y="171"/>
      <point x="262" y="180"/>
      <point x="249" y="180" type="curve" smooth="yes"/>
      <point x="61" y="180" type="line"/>
      <point x="47" y="179"/>
      <point x="34" y="167"/>
      <point x="30" y="153" type="curve" smooth="yes"/>
      <point x="-21" y="-2" type="line" smooth="yes"/>
      <point x="-25" y="-16"/>
      <point x="-18" y="-28"/>
      <point x="-4" y="-28" type="curve" smooth="yes"/>
      <point x="53" y="-28" type="line" smooth="yes"/>
      <point x="67" y="-28"/>
      <point x="73" y="-10"/>
      <point x="106" y="-10" type="curve" name="hr01" smooth="yes"/>
      <point x="135" y="-10"/>
      <point x="152" y="-26"/>
      <point x="147" y="-48" type="curve" smooth="yes"/>
      <point x="142" y="-72"/>
      <point x="119" y="-89"/>
      <point x="90" y="-89" type="curve" smooth="yes"/>
      <point x="33" y="-89"/>
      <point x="49" y="-58"/>
      <point x="25" y="-58" type="curve" name="hr02" smooth="yes"/>
      <point x="-33" y="-58" type="line" smooth="yes"/>
      <point x="-39" y="-58"/>
      <point x="-52" y="-64"/>
      <point x="-54" y="-77" type="curve" smooth="yes"/>
      <point x="-61" y="-119"/>
      <point x="-3" y="-175"/>
      <point x="81" y="-175" type="curve" smooth="yes"/>
      <point x="178" y="-175"/>
      <point x="228" y="-117"/>
      <point x="241" y="-56" type="curve" smooth="yes"/>
      <point x="255" y="13"/>
      <point x="199" y="63"/>
      <point x="137" y="63" type="curve" smooth="yes"/>
      <point x="112" y="63"/>
      <point x="103" y="59"/>
      <point x="86" y="52" type="curve"/>
      <point x="99" y="94" type="line"/>
      <point x="230" y="94" type="line" smooth="yes"/>
      <point x="243" y="94"/>
      <point x="254" y="103"/>
      <point x="257" y="116" type="curve" smooth="yes"/>
    </contour>
  </outline>
</glyph>
<glyph name="seveninferior" format="1">
  <advance width="307"/>
  <unicode hex="2087"/>
  <outline>
    <contour>
      <point x="256" y="158" type="line" name="hr00" smooth="yes"/>
      <point x="259" y="171"/>
      <point x="252" y="180"/>
      <point x="239" y="180" type="curve"/>
      <point x="17" y="180" type="line" smooth="yes"/>
      <point x="4" y="180"/>
      <point x="-7" y="171"/>
      <point x="-10" y="158" type="curve" smooth="yes"/>
      <point x="-19" y="116" type="line"/>
      <point x="-22" y="103"/>
      <point x="-15" y="94"/>
      <point x="-2" y="94" type="curve" smooth="yes"/>
      <point x="133" y="94" type="line"/>
      <point x="-16" y="-139" type="line"/>
      <point x="-25" y="-153"/>
      <point x="-24" y="-170"/>
      <point x="-5" y="-170" type="curve" smooth="yes"/>
      <point x="53" y="-170" type="line" smooth="yes"/>
      <point x="67" y="-170"/>
      <point x="76" y="-158"/>
      <point x="84" y="-146" type="curve" smooth="yes"/>
      <point x="240" y="96" type="line"/>
      <point x="244" y="103"/>
      <point x="246" y="108"/>
      <point x="248" y="118" type="curve" smooth="yes"/>
    </contour>
  </outline>
</glyph>
<glyph name="eightinferior" format="1">
  <advance width="356"/>
  <unicode hex="2088"/>
  <outline>
    <contour>
      <point x="248" y="-69" type="curve" name="hr00" smooth="yes"/>
      <point x="255" y="-34"/>
      <point x="247" y="0"/>
      <point x="219" y="14" type="curve"/>
      <point x="243" y="27"/>
      <point x="262" y="52"/>
      <point x="268" y="83" type="curve" smooth="yes"/>
      <point x="278" y="130"/>
      <point x="245" y="185"/>
      <point x="144" y="185" type="curve" smooth="yes"/>
      <point x="43" y="185"/>
      <point x="6" y="130"/>
      <point x="-4" y="83" type="curve" smooth="yes"/>
      <point x="-10" y="52"/>
      <point x="-3" y="27"/>
      <point x="15" y="14" type="curve"/>
      <point x="-17" y="0"/>
      <point x="-41" y="-34"/>
      <point x="-48" y="-69" type="curve" smooth="yes"/>
      <point x="-59" y="-121"/>
      <point x="-22" y="-175"/>
      <point x="87" y="-175" type="curve" smooth="yes"/>
      <point x="196" y="-175"/>
      <point x="237" y="-121"/>
    </contour>
    <contour>
      <point x="154" y="-65" type="curve" smooth="yes"/>
      <point x="149" y="-91"/>
      <point x="117" y="-100"/>
      <point x="93" y="-100" type="curve" smooth="yes"/>
      <point x="69" y="-100"/>
      <point x="44" y="-90"/>
      <point x="48" y="-65" type="curve" smooth="yes"/>
      <point x="52" y="-39"/>
      <point x="82" y="-30"/>
      <point x="108" y="-30" type="curve" smooth="yes"/>
      <point x="134" y="-30"/>
      <point x="159" y="-39"/>
    </contour>
    <contour>
      <point x="87" y="79" type="curve"/>
      <point x="92" y="99"/>
      <point x="113" y="110"/>
      <point x="138" y="110" type="curve" smooth="yes"/>
      <point x="163" y="110"/>
      <point x="180" y="99"/>
      <point x="175" y="79" type="curve"/>
      <point x="171" y="58"/>
      <point x="149" y="47"/>
      <point x="124" y="47" type="curve" smooth="yes"/>
      <point x="99" y="47"/>
      <point x="83" y="58"/>
    </contour>
  </outline>
</glyph>
<glyph name="parenleftinferior" format="1">
  <advance width="246"/>
  <unicode hex="208D"/>
  <outline>
    <contour>
      <point x="100" y="-134" type="curve" name="hr00" smooth="yes"/>
      <point x="53" y="-121"/>
      <point x="50" y="-65"/>
      <point x="66" y="11" type="curve" smooth="yes"/>
      <point x="82" y="87"/>
      <point x="108" y="141"/>
      <point x="161" y="154" type="curve" smooth="yes"/>
      <point x="176" y="158"/>
      <point x="190" y="160"/>
      <point x="193" y="175" type="curve" smooth="yes"/>
      <point x="203" y="223" type="line" smooth="yes"/>
      <point x="206" y="238"/>
      <point x="199" y="245"/>
      <point x="184" y="245" type="curve" smooth="yes"/>
      <point x="89" y="245"/>
      <point x="11" y="204"/>
      <point x="-29" y="16" type="curve" smooth="yes"/>
      <point x="-69" y="-172"/>
      <point x="19" y="-225"/>
      <point x="84" y="-225" type="curve" smooth="yes"/>
      <point x="99" y="-225"/>
      <point x="109" y="-218"/>
      <point x="112" y="-203" type="curve" smooth="yes"/>
      <point x="123" y="-155" type="line" smooth="yes"/>
      <point x="126" y="-140"/>
      <point x="113" y="-138"/>
    </contour>
  </outline>
</glyph>
<glyph name="estimated" format="1">
  <advance width="629"/>
  <unicode hex="212E"/>
  <outline>
    <contour>
      <point x="52" y="305" type="curve" smooth="yes"/>
      <point x="13" y="118"/>
      <point x="115" y="-10"/>
      <point x="261" y="-10" type="curve" smooth="yes"/>
      <point x="462" y="-10"/>
      <point x="531" y="110"/>
      <point x="537" y="141" type="curve" smooth="yes"/>
      <point x="540" y="154"/>
      <point x="533" y="163"/>
      <point x="520" y="163" type="curve" smooth="yes"/>
      <point x="432" y="163" type="line" smooth="yes"/>
      <point x="416" y="163"/>
      <point x="412" y="164"/>
      <point x="396" y="149" type="curve" smooth="yes"/>
      <point x="363" y="118"/>
      <point x="341" y="110"/>
      <point x="277" y="110" type="curve" name="hr01" smooth="yes"/>
      <point x="182" y="110"/>
      <point x="160" y="179"/>
      <point x="169" y="239" type="curve"/>
      <point x="547" y="239" type="line" smooth="yes"/>
      <point x="562" y="239"/>
      <point x="577" y="251"/>
      <point x="580" y="266" type="curve" smooth="yes"/>
      <point x="590" y="311" type="line" smooth="yes"/>
      <point x="619" y="448"/>
      <point x="549" y="610"/>
      <point x="373" y="610" type="curve" smooth="yes"/>
      <point x="190" y="610"/>
      <point x="90" y="481"/>
    </contour>
    <contour>
      <point x="358" y="490" type="curve" smooth="yes"/>
      <point x="453" y="490"/>
      <point x="473" y="414"/>
      <point x="464" y="353" type="curve"/>
      <point x="194" y="353" type="line"/>
      <point x="209" y="414"/>
      <point x="272" y="490"/>
    </contour>
  </outline>
</glyph>
<glyph name="summation" format="1">
  <advance width="584"/>
  <unicode hex="2211"/>
  <outline>
    <contour>
      <point x="147" y="-80" type="line" name="hr00"/>
      <point x="487" y="182" type="line" smooth="yes"/>
      <point x="501" y="193"/>
      <point x="513" y="202"/>
      <point x="516" y="216" type="curve" smooth="yes"/>
      <point x="522" y="244" type="line" smooth="yes"/>
      <point x="525" y="258"/>
      <point x="517" y="267"/>
      <point x="508" y="278" type="curve" smooth="yes"/>
      <point x="269" y="580" type="line"/>
      <point x="561" y="580" type="line" smooth="yes"/>
      <point x="576" y="580"/>
      <point x="591" y="592"/>
      <point x="594" y="607" type="curve"/>
      <point x="608" y="673" type="line" smooth="yes"/>
      <point x="611" y="688"/>
      <point x="601" y="700"/>
      <point x="586" y="700" type="curve" smooth="yes"/>
      <point x="152" y="700" type="line" smooth="yes"/>
      <point x="137" y="700"/>
      <point x="123" y="688"/>
      <point x="120" y="673" type="curve"/>
      <point x="106" y="607" type="line" smooth="yes"/>
      <point x="103" y="593"/>
      <point x="107" y="583"/>
      <point x="115" y="573" type="curve" smooth="yes"/>
      <point x="374" y="248" type="line"/>
      <point x="-22" y="-73" type="line" smooth="yes"/>
      <point x="-34" y="-83"/>
      <point x="-43" y="-93"/>
      <point x="-46" y="-107" type="curve" smooth="yes"/>
      <point x="-60" y="-173" type="line" smooth="yes"/>
      <point x="-63" y="-188"/>
      <point x="-54" y="-200"/>
      <point x="-39" y="-200" type="curve" smooth="yes"/>
      <point x="395" y="-200" type="line" smooth="yes"/>
      <point x="410" y="-200"/>
      <point x="425" y="-188"/>
      <point x="428" y="-173" type="curve" smooth="yes"/>
      <point x="442" y="-107" type="line" smooth="yes"/>
      <point x="445" y="-92"/>
      <point x="435" y="-80"/>
      <point x="420" y="-80" type="curve" smooth="yes"/>
    </contour>
  </outline>
</glyph>
<glyph name="minus" format="1">
  <advance width="651"/>
  <unicode hex="2212"/>
  <outline>
    <contour>
      <point x="546" y="240" type="line" name="hr00" smooth="yes"/>
      <point x="561" y="240"/>
      <point x="575" y="252"/>
      <point x="578" y="267" type="curve" smooth="yes"/>
      <point x="592" y="333" type="line" smooth="yes"/>
      <point x="595" y="348"/>
      <point x="586" y="360"/>
      <point x="571" y="360" type="curve" smooth="yes"/>
      <point x="107" y="360" type="line" smooth="yes"/>
      <point x="92" y="360"/>
      <point x="77" y="348"/>
      <point x="74" y="333" type="curve" smooth="yes"/>
      <point x="60" y="267" type="line"/>
      <point x="57" y="252"/>
      <point x="67" y="240"/>
      <point x="82" y="240" type="curve" smooth="yes"/>
    </contour>
  </outline>
</glyph>
<glyph name="infinity" format="1">
  <advance width="897"/>
  <unicode hex="221E"/>
  <outline>
    <contour>
      <point x="422" y="159" type="curve" name="hr00"/>
      <point x="457" y="87"/>
      <point x="495" y="46"/>
      <point x="591" y="46" type="curve" smooth="yes"/>
      <point x="740" y="46"/>
      <point x="818" y="151"/>
      <point x="842" y="266" type="curve" smooth="yes"/>
      <point x="867" y="381"/>
      <point x="796" y="496"/>
      <point x="667" y="496" type="curve" smooth="yes"/>
      <point x="571" y="496"/>
      <point x="531" y="455"/>
      <point x="465" y="383" type="curve"/>
      <point x="429" y="455"/>
      <point x="391" y="496"/>
      <point x="295" y="496" type="curve" smooth="yes"/>
      <point x="146" y="496"/>
      <point x="69" y="391"/>
      <point x="44" y="276" type="curve" smooth="yes"/>
      <point x="20" y="161"/>
      <point x="90" y="46"/>
      <point x="219" y="46" type="curve" smooth="yes"/>
      <point x="315" y="46"/>
      <point x="355" y="87"/>
    </contour>
    <contour>
      <point x="651" y="376" type="curve" smooth="yes"/>
      <point x="683" y="376"/>
      <point x="730" y="352"/>
      <point x="713" y="271" type="curve" smooth="yes"/>
      <point x="696" y="190"/>
      <point x="639" y="166"/>
      <point x="607" y="166" type="curve" smooth="yes"/>
      <point x="553" y="166"/>
      <point x="540" y="207"/>
      <point x="512" y="271" type="curve"/>
      <point x="568" y="335"/>
      <point x="597" y="376"/>
    </contour>
    <contour>
      <point x="279" y="376" type="curve" smooth="yes"/>
      <point x="333" y="376"/>
      <point x="346" y="335"/>
      <point x="374" y="271" type="curve"/>
      <point x="318" y="207"/>
      <point x="289" y="166"/>
      <point x="235" y="166" type="curve" smooth="yes"/>
      <point x="203" y="166"/>
      <point x="156" y="190"/>
      <point x="173" y="271" type="curve" smooth="yes"/>
      <point x="190" y="352"/>
      <point x="247" y="376"/>
    </contour>
  </outline>
</glyph>
<glyph name="integral" format="1">
  <advance width="518"/>
  <unicode hex="222B"/>
  <outline>
    <contour>
      <point x="36" y="-80" type="curve" name="hr00" smooth="yes"/>
      <point x="-35" y="-80" type="line" smooth="yes"/>
      <point x="-50" y="-80"/>
      <point x="-65" y="-92"/>
      <point x="-68" y="-107" type="curve" smooth="yes"/>
      <point x="-82" y="-173" type="line"/>
      <point x="-85" y="-188"/>
      <point x="-76" y="-200"/>
      <point x="-61" y="-200" type="curve"/>
      <point x="20" y="-200" type="line" smooth="yes"/>
      <point x="150" y="-200"/>
      <point x="228" y="-154"/>
      <point x="255" y="-25" type="curve"/>
      <point x="377" y="548" type="line"/>
      <point x="388" y="598"/>
      <point x="420" y="620"/>
      <point x="470" y="620" type="curve"/>
      <point x="541" y="620" type="line"/>
      <point x="556" y="620"/>
      <point x="571" y="632"/>
      <point x="574" y="647" type="curve"/>
      <point x="588" y="713" type="line"/>
      <point x="591" y="728"/>
      <point x="582" y="740"/>
      <point x="567" y="740" type="curve"/>
      <point x="486" y="740" type="line" smooth="yes"/>
      <point x="356" y="740"/>
      <point x="278" y="694"/>
      <point x="251" y="565" type="curve"/>
      <point x="129" y="-8" type="line"/>
      <point x="118" y="-58"/>
      <point x="86" y="-80"/>
    </contour>
  </outline>
</glyph>
<glyph name="Dieresis" format="1">
  <advance width="424"/>
  <unicode hex="F6CB"/>
  <outline>
    <contour>
      <point x="82" y="892" type="line" name="hr00" smooth="yes"/>
      <point x="67" y="892"/>
      <point x="52" y="880"/>
      <point x="49" y="865" type="curve" smooth="yes"/>
      <point x="31" y="777" type="line" smooth="yes"/>
      <point x="28" y="762"/>
      <point x="37" y="750"/>
      <point x="52" y="750" type="curve" smooth="yes"/>
      <point x="135" y="750" type="line" smooth="yes"/>
      <point x="150" y="750"/>
      <point x="165" y="762"/>
      <point x="168" y="777" type="curve" smooth="yes"/>
      <point x="186" y="865" type="line" smooth="yes"/>
      <point x="189" y="880"/>
      <point x="180" y="892"/>
      <point x="165" y="892" type="curve" smooth="yes"/>
    </contour>
    <contour>
      <point x="319" y="892" type="line" smooth="yes"/>
      <point x="304" y="892"/>
      <point x="289" y="880"/>
      <point x="286" y="865" type="curve" smooth="yes"/>
      <point x="268" y="777" type="line" smooth="yes"/>
      <point x="265" y="762"/>
      <point x="274" y="750"/>
      <point x="289" y="750" type="curve" smooth="yes"/>
      <point x="372" y="750" type="line" smooth="yes"/>
      <point x="387" y="750"/>
      <point x="402" y="762"/>
      <point x="405" y="777" type="curve" smooth="yes"/>
      <point x="423" y="865" type="line" smooth="yes"/>
      <point x="426" y="880"/>
      <point x="417" y="892"/>
      <point x="402" y="892" type="curve" smooth="yes"/>
    </contour>
  </outline>
</glyph>
<glyph name="Macron" format="1">
  <advance width="379"/>
  <unicode hex="F6D0"/>
  <outline>
    <contour>
      <point x="331" y="750" type="line" name="hr00" smooth="yes"/>
      <point x="346" y="750"/>
      <point x="361" y="762"/>
      <point x="364" y="777" type="curve" smooth="yes"/>
      <point x="378" y="843" type="line"/>
      <point x="381" y="858"/>
      <point x="371" y="870"/>
      <point x="356" y="870" type="curve"/>
      <point x="77" y="870" type="line"/>
      <point x="62" y="870"/>
      <point x="48" y="858"/>
      <point x="45" y="843" type="curve"/>
      <point x="31" y="777" type="line"/>
      <point x="27" y="762"/>
      <point x="37" y="750"/>
      <point x="52" y="750" type="curve"/>
    </contour>
  </outline>
</glyph>
<glyph name="Dotaccent" format="1">
  <advance width="193"/>
  <outline>
    <contour>
      <point x="83" y="897" type="line" name="hr00" smooth="yes"/>
      <point x="68" y="897"/>
      <point x="53" y="885"/>
      <point x="50" y="870" type="curve"/>
      <point x="31" y="777" type="line" smooth="yes"/>
      <point x="27" y="762"/>
      <point x="37" y="750"/>
      <point x="52" y="750" type="curve"/>
      <point x="140" y="750" type="line"/>
      <point x="155" y="750"/>
      <point x="170" y="762"/>
      <point x="173" y="777" type="curve"/>
      <point x="192" y="870" type="line" smooth="yes"/>
      <point x="195" y="885"/>
      <point x="186" y="897"/>
      <point x="171" y="897" type="curve" smooth="yes"/>
    </contour>
  </outline>
</glyph>
<glyph name="approxequal.cap" format="1">
  <advance width="564"/>
  <outline>
    <contour>
      <point x="228" y="555" type="curve" smooth="yes"/>
      <point x="160" y="555"/>
      <point x="116" y="519"/>
      <point x="106" y="475" type="curve" smooth="yes"/>
      <point x="97" y="435" type="line" smooth="yes"/>
      <point x="91" y="410"/>
      <point x="92" y="398"/>
      <point x="111" y="398" type="curve" smooth="yes"/>
      <point x="134" y="398"/>
      <point x="150" y="433"/>
      <point x="201" y="433" type="curve" smooth="yes"/>
      <point x="294" y="433"/>
      <point x="309" y="391"/>
      <point x="408" y="391" type="curve" name="hr01" smooth="yes"/>
      <point x="476" y="391"/>
      <point x="526" y="427"/>
      <point x="535" y="471" type="curve" smooth="yes"/>
      <point x="543" y="511" type="line" smooth="yes"/>
      <point x="548" y="536"/>
      <point x="548" y="548"/>
      <point x="529" y="548" type="curve" smooth="yes"/>
      <point x="507" y="548"/>
      <point x="489" y="513"/>
      <point x="435" y="513" type="curve" smooth="yes"/>
      <point x="342" y="513"/>
      <point x="327" y="555"/>
    </contour>
    <contour>
      <point x="176" y="310" type="curve" smooth="yes"/>
      <point x="108" y="310"/>
      <point x="64" y="274"/>
      <point x="54" y="230" type="curve" smooth="yes"/>
      <point x="45" y="190" type="line" smooth="yes"/>
      <point x="39" y="165"/>
      <point x="40" y="153"/>
      <point x="59" y="153" type="curve" smooth="yes"/>
      <point x="82" y="153"/>
      <point x="98" y="188"/>
      <point x="149" y="188" type="curve" smooth="yes"/>
      <point x="242" y="188"/>
      <point x="257" y="146"/>
      <point x="356" y="146" type="curve" name="hr03" smooth="yes"/>
      <point x="424" y="146"/>
      <point x="474" y="182"/>
      <point x="483" y="226" type="curve"/>
      <point x="491" y="266" type="line" smooth="yes"/>
      <point x="496" y="291"/>
      <point x="496" y="303"/>
      <point x="477" y="303" type="curve" smooth="yes"/>
      <point x="455" y="303"/>
      <point x="437" y="268"/>
      <point x="383" y="268" type="curve" smooth="yes"/>
      <point x="290" y="268"/>
      <point x="275" y="310"/>
    </contour>
  </outline>
</glyph>
<glyph name="eight.otlf" format="1">
  <advance width="640"/>
  <outline>
    <contour>
      <point x="26" y="213" type="curve" name="hr00" smooth="yes"/>
      <point x="-2" y="83"/>
      <point x="106" y="-10"/>
      <point x="264" y="-10" type="curve" smooth="yes"/>
      <point x="442" y="-10"/>
      <point x="548" y="73"/>
      <point x="576" y="203" type="curve" smooth="yes"/>
      <point x="590" y="272"/>
      <point x="571" y="327"/>
      <point x="526" y="364" type="curve"/>
      <point x="570" y="398"/>
      <point x="602" y="444"/>
      <point x="614" y="500" type="curve" smooth="yes"/>
      <point x="640" y="623"/>
      <point x="531" y="710"/>
      <point x="397" y="710" type="curve" smooth="yes"/>
      <point x="243" y="710"/>
      <point x="140" y="633"/>
      <point x="114" y="510" type="curve" smooth="yes"/>
      <point x="102" y="454"/>
      <point x="113" y="408"/>
      <point x="144" y="374" type="curve"/>
      <point x="82" y="337"/>
      <point x="40" y="282"/>
    </contour>
    <contour>
      <point x="160" y="208" type="curve" smooth="yes"/>
      <point x="173" y="269"/>
      <point x="247" y="300"/>
      <point x="320" y="300" type="curve" smooth="yes"/>
      <point x="393" y="300"/>
      <point x="455" y="269"/>
      <point x="442" y="208" type="curve" smooth="yes"/>
      <point x="429" y="147"/>
      <point x="354" y="115"/>
      <point x="281" y="115" type="curve" smooth="yes"/>
      <point x="208" y="115"/>
      <point x="147" y="147"/>
    </contour>
    <contour>
      <point x="248" y="505" type="curve" smooth="yes"/>
      <point x="259" y="559"/>
      <point x="321" y="585"/>
      <point x="381" y="585" type="curve" smooth="yes"/>
      <point x="441" y="585"/>
      <point x="491" y="559"/>
      <point x="480" y="505" type="curve" smooth="yes"/>
      <point x="468" y="451"/>
      <point x="407" y="425"/>
      <point x="347" y="425" type="curve" smooth="yes"/>
      <point x="287" y="425"/>
      <point x="236" y="451"/>
    </contour>
  </outline>
</glyph>
<glyph name="notequal.cap" format="1">
  <advance width="554"/>
  <outline>
    <contour>
      <point x="442" y="167" type="line" smooth="yes"/>
      <point x="457" y="167"/>
      <point x="472" y="179"/>
      <point x="475" y="194" type="curve" smooth="yes"/>
      <point x="489" y="260" type="line" smooth="yes"/>
      <point x="492" y="275"/>
      <point x="483" y="287"/>
      <point x="468" y="287" type="curve" smooth="yes"/>
      <point x="323" y="287" type="line"/>
      <point x="403" y="414" type="line"/>
      <point x="495" y="414" type="line" smooth="yes"/>
      <point x="510" y="414"/>
      <point x="525" y="426"/>
      <point x="528" y="441" type="curve" smooth="yes"/>
      <point x="542" y="507" type="line" smooth="yes"/>
      <point x="545" y="522"/>
      <point x="535" y="534"/>
      <point x="520" y="534" type="curve" smooth="yes"/>
      <point x="478" y="534" type="line"/>
      <point x="519" y="599" type="line" smooth="yes"/>
      <point x="527" y="612"/>
      <point x="524" y="630"/>
      <point x="506" y="630" type="curve" name="hr01" smooth="yes"/>
      <point x="420" y="630" type="line" smooth="yes"/>
      <point x="395" y="630"/>
      <point x="378" y="614"/>
      <point x="369" y="600" type="curve" smooth="yes"/>
      <point x="328" y="534" type="line" name="hr02"/>
      <point x="135" y="534" type="line" smooth="yes"/>
      <point x="120" y="534"/>
      <point x="106" y="522"/>
      <point x="103" y="507" type="curve" smooth="yes"/>
      <point x="89" y="441" type="line" smooth="yes"/>
      <point x="86" y="426"/>
      <point x="95" y="414"/>
      <point x="110" y="414" type="curve" smooth="yes"/>
      <point x="253" y="414" type="line"/>
      <point x="173" y="287" type="line"/>
      <point x="83" y="287" type="line" smooth="yes"/>
      <point x="68" y="287"/>
      <point x="53" y="275"/>
      <point x="50" y="260" type="curve" smooth="yes"/>
      <point x="36" y="194" type="line" smooth="yes"/>
      <point x="33" y="179"/>
      <point x="42" y="167"/>
      <point x="57" y="167" type="curve" name="hr03" smooth="yes"/>
      <point x="98" y="167" type="line"/>
      <point x="57" y="102" type="line" smooth="yes"/>
      <point x="47" y="87"/>
      <point x="54" y="71"/>
      <point x="70" y="71" type="curve" name="hr04" smooth="yes"/>
      <point x="156" y="71" type="line" smooth="yes"/>
      <point x="183" y="71"/>
      <point x="198" y="89"/>
      <point x="206" y="101" type="curve" smooth="yes"/>
      <point x="248" y="167" type="line" name="hr05"/>
    </contour>
  </outline>
</glyph>
